G04 (created by PCBNEW (2013-dec-23)-stable) date Вт 14 апр 2015 10:35:36*
%MOIN*%
G04 Gerber Fmt 3.4, Leading zero omitted, Abs format*
%FSLAX34Y34*%
G01*
G70*
G90*
G04 APERTURE LIST*
%ADD10C,0.00590551*%
%ADD11R,0.0177X0.0787*%
%ADD12R,0.0787X0.0177*%
%ADD13R,0.045X0.02*%
%ADD14R,0.08X0.06*%
%ADD15R,0.06X0.08*%
%ADD16R,0.1X0.1*%
%ADD17C,0.1*%
%ADD18R,0.06X0.06*%
%ADD19C,0.06*%
%ADD20R,0.055X0.055*%
%ADD21C,0.055*%
%ADD22R,0.0551181X0.0472441*%
%ADD23C,0.15*%
%ADD24R,0.15X0.15*%
%ADD25C,0.035*%
%ADD26C,0.01*%
G04 APERTURE END LIST*
G54D10*
G54D11*
X47157Y-33146D03*
X47472Y-33146D03*
X47787Y-33146D03*
X48102Y-33146D03*
X48417Y-33146D03*
X48732Y-33146D03*
X49047Y-33146D03*
X49362Y-33146D03*
X49360Y-29380D03*
X47150Y-29380D03*
X47470Y-29380D03*
X47790Y-29380D03*
X48100Y-29380D03*
X48420Y-29380D03*
X48730Y-29380D03*
X49050Y-29380D03*
G54D12*
X50150Y-32362D03*
X50150Y-32048D03*
X50150Y-31732D03*
X50150Y-31418D03*
X50150Y-31102D03*
X50150Y-30788D03*
X50150Y-30472D03*
X50150Y-30158D03*
X46370Y-32360D03*
X46370Y-32050D03*
X46370Y-31730D03*
X46370Y-31420D03*
X46370Y-31110D03*
X46370Y-30790D03*
X46370Y-30470D03*
X46370Y-30150D03*
G54D13*
X54000Y-31750D03*
X54000Y-31250D03*
X54000Y-30750D03*
X54000Y-30250D03*
X51500Y-30250D03*
X51500Y-30750D03*
X51500Y-31250D03*
X51500Y-31750D03*
G54D14*
X50750Y-34400D03*
X50750Y-33100D03*
X54000Y-33900D03*
X54000Y-32600D03*
G54D15*
X42850Y-34000D03*
X44150Y-34000D03*
X49650Y-34250D03*
X48350Y-34250D03*
G54D16*
X55500Y-32250D03*
G54D17*
X55500Y-30250D03*
G54D16*
X42750Y-30250D03*
G54D17*
X42750Y-32250D03*
G54D18*
X56500Y-28000D03*
G54D19*
X55500Y-28000D03*
X54500Y-28000D03*
X53500Y-28000D03*
X52500Y-28000D03*
X51500Y-28000D03*
G54D18*
X45000Y-29250D03*
G54D19*
X45000Y-30250D03*
X45000Y-31250D03*
X45000Y-32250D03*
G54D15*
X51850Y-29250D03*
X53150Y-29250D03*
G54D18*
X45500Y-28000D03*
G54D19*
X46500Y-28000D03*
X47500Y-28000D03*
X48500Y-28000D03*
X49500Y-28000D03*
X50500Y-28000D03*
G54D20*
X52750Y-33500D03*
G54D21*
X52750Y-32500D03*
X51750Y-32500D03*
G54D22*
X46183Y-33814D03*
X45316Y-33814D03*
X46183Y-33185D03*
X45316Y-33185D03*
G54D14*
X55500Y-34650D03*
X55500Y-33350D03*
G54D23*
X47250Y-35750D03*
X45250Y-35750D03*
G54D24*
X49250Y-35750D03*
G54D23*
X43250Y-35750D03*
G54D16*
X55250Y-35750D03*
G54D17*
X53250Y-35750D03*
X51250Y-35750D03*
G54D25*
X46000Y-34500D03*
X48750Y-32500D03*
X48000Y-31750D03*
X52000Y-34500D03*
X52000Y-31000D03*
X49750Y-33500D03*
X52000Y-30000D03*
X43500Y-32750D03*
X45500Y-31750D03*
X50000Y-33000D03*
X47500Y-31250D03*
G54D26*
X46000Y-34500D02*
X47250Y-35750D01*
X52000Y-37000D02*
X56000Y-37000D01*
X56100Y-33350D02*
X55500Y-33350D01*
X56500Y-33750D02*
X56100Y-33350D01*
X56500Y-34350D02*
X56500Y-33750D01*
X56500Y-36500D02*
X56500Y-34350D01*
X56000Y-37000D02*
X56500Y-36500D01*
X47000Y-37000D02*
X52000Y-37000D01*
X52000Y-37000D02*
X53250Y-35750D01*
X54000Y-33900D02*
X54350Y-33900D01*
X54350Y-33900D02*
X54900Y-33350D01*
X54900Y-33350D02*
X55500Y-33350D01*
X43250Y-35750D02*
X43250Y-37000D01*
X43250Y-37000D02*
X47000Y-37000D01*
X47000Y-37000D02*
X47250Y-36750D01*
X47250Y-36750D02*
X47250Y-35750D01*
X43250Y-35750D02*
X43250Y-35000D01*
X42850Y-34600D02*
X42850Y-34000D01*
X43250Y-35000D02*
X42850Y-34600D01*
X48732Y-32518D02*
X48750Y-32500D01*
X48732Y-33146D02*
X48732Y-32518D01*
X48102Y-33146D02*
X48102Y-31852D01*
X48102Y-31852D02*
X48000Y-31750D01*
X54000Y-30250D02*
X54000Y-28000D01*
X53500Y-28000D02*
X54000Y-28000D01*
X54000Y-28000D02*
X54500Y-28000D01*
X52500Y-28000D02*
X53500Y-28000D01*
X48250Y-27500D02*
X51000Y-27500D01*
X48420Y-28670D02*
X48000Y-28250D01*
X48000Y-28250D02*
X48000Y-27750D01*
X48000Y-27750D02*
X48250Y-27500D01*
X48420Y-29380D02*
X48420Y-28670D01*
X51000Y-27500D02*
X51500Y-28000D01*
X54500Y-28000D02*
X55500Y-28000D01*
X55500Y-28000D02*
X56500Y-28000D01*
X51500Y-28000D02*
X52500Y-28000D01*
X52750Y-32500D02*
X52750Y-30250D01*
X52500Y-30000D02*
X52500Y-28000D01*
X52750Y-30250D02*
X52500Y-30000D01*
X49900Y-34250D02*
X50650Y-34500D01*
X50650Y-34500D02*
X50750Y-34400D01*
X45000Y-29250D02*
X44750Y-29250D01*
X41750Y-32900D02*
X42850Y-34000D01*
X41750Y-29000D02*
X41750Y-32900D01*
X42250Y-28500D02*
X41750Y-29000D01*
X44000Y-28500D02*
X42250Y-28500D01*
X44750Y-29250D02*
X44000Y-28500D01*
X54000Y-30750D02*
X55000Y-30750D01*
X55000Y-30750D02*
X55500Y-30250D01*
X46370Y-30470D02*
X45780Y-30470D01*
X45750Y-28250D02*
X45500Y-28000D01*
X45750Y-30440D02*
X45750Y-28250D01*
X45780Y-30470D02*
X45750Y-30440D01*
X54250Y-34750D02*
X55400Y-34750D01*
X55400Y-34750D02*
X55500Y-34650D01*
X52250Y-34750D02*
X54250Y-34750D01*
X52000Y-34500D02*
X52250Y-34750D01*
X52000Y-31500D02*
X52000Y-31000D01*
X51750Y-31750D02*
X52000Y-31500D01*
X51500Y-31750D02*
X51750Y-31750D01*
X51500Y-31750D02*
X50168Y-31750D01*
X50168Y-31750D02*
X50150Y-31732D01*
X49362Y-33146D02*
X49396Y-33146D01*
X49396Y-33146D02*
X49750Y-33500D01*
X52000Y-30250D02*
X52000Y-30000D01*
X50150Y-32048D02*
X51952Y-32048D01*
X52000Y-30250D02*
X51500Y-30250D01*
X52500Y-30750D02*
X52000Y-30250D01*
X52500Y-31500D02*
X52500Y-30750D01*
X51952Y-32048D02*
X52500Y-31500D01*
X50150Y-31102D02*
X50852Y-31102D01*
X51000Y-31250D02*
X51500Y-31250D01*
X50852Y-31102D02*
X51000Y-31250D01*
X51500Y-30750D02*
X50188Y-30750D01*
X50188Y-30750D02*
X50150Y-30788D01*
X49360Y-29380D02*
X49360Y-28140D01*
X49360Y-28140D02*
X49500Y-28000D01*
X49047Y-33146D02*
X49047Y-35547D01*
X49047Y-35547D02*
X49250Y-35750D01*
X42750Y-30250D02*
X45000Y-30250D01*
X45250Y-35750D02*
X45250Y-35000D01*
X43500Y-34500D02*
X43500Y-32750D01*
X43750Y-34750D02*
X43500Y-34500D01*
X45000Y-34750D02*
X43750Y-34750D01*
X45250Y-35000D02*
X45000Y-34750D01*
X50750Y-33100D02*
X51150Y-33100D01*
X51150Y-33100D02*
X51750Y-32500D01*
X45000Y-32250D02*
X42750Y-32250D01*
X44150Y-34000D02*
X44250Y-34000D01*
X45064Y-33185D02*
X45316Y-33185D01*
X44250Y-34000D02*
X45064Y-33185D01*
X45316Y-33185D02*
X45316Y-32933D01*
X46761Y-32750D02*
X47157Y-33146D01*
X45500Y-32750D02*
X46761Y-32750D01*
X45316Y-32933D02*
X45500Y-32750D01*
X47472Y-33146D02*
X47472Y-33778D01*
X46368Y-34000D02*
X46183Y-33814D01*
X47250Y-34000D02*
X46368Y-34000D01*
X47472Y-33778D02*
X47250Y-34000D01*
X48600Y-34250D02*
X46618Y-34250D01*
X46618Y-34250D02*
X46183Y-33814D01*
X45860Y-32360D02*
X45500Y-32000D01*
X45500Y-32000D02*
X45500Y-31750D01*
X46370Y-32360D02*
X45860Y-32360D01*
X51850Y-29250D02*
X50750Y-29250D01*
X50750Y-29250D02*
X50500Y-29000D01*
X50150Y-31418D02*
X49332Y-31418D01*
X50500Y-29000D02*
X50500Y-28000D01*
X49250Y-30250D02*
X50500Y-29000D01*
X49250Y-30500D02*
X49250Y-30250D01*
X49250Y-31336D02*
X49250Y-30500D01*
X49332Y-31418D02*
X49250Y-31336D01*
X49050Y-28800D02*
X49050Y-28550D01*
X49050Y-29380D02*
X49050Y-28800D01*
X49050Y-28550D02*
X48500Y-28000D01*
X47150Y-29380D02*
X47150Y-28600D01*
X47500Y-28250D02*
X47500Y-28000D01*
X47150Y-28600D02*
X47500Y-28250D01*
X46370Y-30150D02*
X46370Y-28130D01*
X46370Y-28130D02*
X46500Y-28000D01*
X55500Y-32250D02*
X55500Y-32000D01*
X54750Y-31250D02*
X54000Y-31250D01*
X55500Y-32000D02*
X54750Y-31250D01*
X50500Y-33750D02*
X50250Y-33750D01*
X50000Y-33000D02*
X50250Y-33750D01*
X50500Y-33750D02*
X52500Y-33750D01*
X52500Y-33750D02*
X52750Y-33500D01*
X47500Y-31250D02*
X47750Y-31000D01*
X48500Y-31500D02*
X50000Y-33000D01*
X48500Y-31250D02*
X48500Y-31500D01*
X48250Y-31000D02*
X48500Y-31250D01*
X47750Y-31000D02*
X48250Y-31000D01*
X47500Y-31250D02*
X48000Y-31250D01*
X48417Y-31667D02*
X48417Y-33146D01*
X48000Y-31250D02*
X48417Y-31667D01*
X47500Y-31250D02*
X47470Y-31250D01*
X47470Y-31250D02*
X47500Y-31250D01*
X47500Y-31250D02*
X47470Y-31250D01*
X47787Y-33146D02*
X47787Y-32037D01*
X47470Y-31720D02*
X47470Y-31250D01*
X47470Y-31250D02*
X47470Y-30720D01*
X47470Y-30720D02*
X47470Y-30470D01*
X47787Y-32037D02*
X47470Y-31720D01*
X47470Y-29380D02*
X47470Y-30470D01*
X53250Y-32000D02*
X53250Y-29350D01*
X53250Y-29350D02*
X53150Y-29250D01*
X54000Y-31750D02*
X54000Y-32600D01*
X52750Y-33500D02*
X53000Y-33500D01*
X53250Y-33250D02*
X53250Y-32000D01*
X53000Y-33500D02*
X53250Y-33250D01*
X53500Y-31750D02*
X54000Y-31750D01*
X53250Y-32000D02*
X53500Y-31750D01*
G54D10*
G36*
X48117Y-32610D02*
X48116Y-32610D01*
X48102Y-32646D01*
X48087Y-32611D01*
X48087Y-32610D01*
X48087Y-32037D01*
X48064Y-31922D01*
X47999Y-31824D01*
X47999Y-31824D01*
X47770Y-31595D01*
X47770Y-31580D01*
X47801Y-31550D01*
X47875Y-31550D01*
X48117Y-31791D01*
X48117Y-32610D01*
X48117Y-32610D01*
G37*
G54D26*
X48117Y-32610D02*
X48116Y-32610D01*
X48102Y-32646D01*
X48087Y-32611D01*
X48087Y-32610D01*
X48087Y-32037D01*
X48064Y-31922D01*
X47999Y-31824D01*
X47999Y-31824D01*
X47770Y-31595D01*
X47770Y-31580D01*
X47801Y-31550D01*
X47875Y-31550D01*
X48117Y-31791D01*
X48117Y-32610D01*
G54D10*
G36*
X48198Y-27529D02*
X48188Y-27533D01*
X48034Y-27688D01*
X48000Y-27769D01*
X47966Y-27688D01*
X47811Y-27534D01*
X47801Y-27529D01*
X48198Y-27529D01*
X48198Y-27529D01*
G37*
G54D26*
X48198Y-27529D02*
X48188Y-27533D01*
X48034Y-27688D01*
X48000Y-27769D01*
X47966Y-27688D01*
X47811Y-27534D01*
X47801Y-27529D01*
X48198Y-27529D01*
G54D10*
G36*
X48750Y-28736D02*
X48591Y-28736D01*
X48575Y-28743D01*
X48558Y-28736D01*
X48526Y-28736D01*
X48464Y-28799D01*
X48464Y-28810D01*
X48429Y-28844D01*
X48415Y-28880D01*
X48400Y-28845D01*
X48375Y-28820D01*
X48375Y-28799D01*
X48313Y-28736D01*
X48281Y-28736D01*
X48260Y-28745D01*
X48238Y-28736D01*
X48138Y-28736D01*
X47961Y-28736D01*
X47945Y-28743D01*
X47928Y-28736D01*
X47828Y-28736D01*
X47651Y-28736D01*
X47630Y-28745D01*
X47608Y-28736D01*
X47508Y-28736D01*
X47450Y-28736D01*
X47450Y-28724D01*
X47634Y-28539D01*
X47811Y-28466D01*
X47965Y-28311D01*
X47999Y-28230D01*
X48033Y-28311D01*
X48188Y-28465D01*
X48390Y-28549D01*
X48608Y-28550D01*
X48620Y-28545D01*
X48750Y-28674D01*
X48750Y-28736D01*
X48750Y-28736D01*
G37*
G54D26*
X48750Y-28736D02*
X48591Y-28736D01*
X48575Y-28743D01*
X48558Y-28736D01*
X48526Y-28736D01*
X48464Y-28799D01*
X48464Y-28810D01*
X48429Y-28844D01*
X48415Y-28880D01*
X48400Y-28845D01*
X48375Y-28820D01*
X48375Y-28799D01*
X48313Y-28736D01*
X48281Y-28736D01*
X48260Y-28745D01*
X48238Y-28736D01*
X48138Y-28736D01*
X47961Y-28736D01*
X47945Y-28743D01*
X47928Y-28736D01*
X47828Y-28736D01*
X47651Y-28736D01*
X47630Y-28745D01*
X47608Y-28736D01*
X47508Y-28736D01*
X47450Y-28736D01*
X47450Y-28724D01*
X47634Y-28539D01*
X47811Y-28466D01*
X47965Y-28311D01*
X47999Y-28230D01*
X48033Y-28311D01*
X48188Y-28465D01*
X48390Y-28549D01*
X48608Y-28550D01*
X48620Y-28545D01*
X48750Y-28674D01*
X48750Y-28736D01*
G54D10*
G36*
X49078Y-32502D02*
X48908Y-32502D01*
X48889Y-32510D01*
X48870Y-32502D01*
X48838Y-32502D01*
X48776Y-32565D01*
X48776Y-32581D01*
X48746Y-32610D01*
X48732Y-32646D01*
X48717Y-32611D01*
X48717Y-32610D01*
X48717Y-32141D01*
X49078Y-32502D01*
X49078Y-32502D01*
G37*
G54D26*
X49078Y-32502D02*
X48908Y-32502D01*
X48889Y-32510D01*
X48870Y-32502D01*
X48838Y-32502D01*
X48776Y-32565D01*
X48776Y-32581D01*
X48746Y-32610D01*
X48732Y-32646D01*
X48717Y-32611D01*
X48717Y-32610D01*
X48717Y-32141D01*
X49078Y-32502D01*
G54D10*
G36*
X49707Y-34300D02*
X49700Y-34300D01*
X49700Y-34307D01*
X49600Y-34307D01*
X49600Y-34300D01*
X49592Y-34300D01*
X49592Y-34200D01*
X49600Y-34200D01*
X49600Y-34192D01*
X49700Y-34192D01*
X49700Y-34200D01*
X49707Y-34200D01*
X49707Y-34300D01*
X49707Y-34300D01*
G37*
G54D26*
X49707Y-34300D02*
X49700Y-34300D01*
X49700Y-34307D01*
X49600Y-34307D01*
X49600Y-34300D01*
X49592Y-34300D01*
X49592Y-34200D01*
X49600Y-34200D01*
X49600Y-34192D01*
X49700Y-34192D01*
X49700Y-34200D01*
X49707Y-34200D01*
X49707Y-34300D01*
G54D10*
G36*
X56720Y-37200D02*
X56150Y-37200D01*
X56150Y-34900D01*
X56150Y-34300D01*
X56150Y-33699D01*
X56150Y-33462D01*
X56087Y-33400D01*
X55550Y-33400D01*
X55550Y-33837D01*
X55612Y-33900D01*
X55850Y-33900D01*
X55949Y-33899D01*
X56041Y-33861D01*
X56112Y-33791D01*
X56150Y-33699D01*
X56150Y-34300D01*
X56112Y-34208D01*
X56041Y-34138D01*
X55949Y-34100D01*
X55850Y-34099D01*
X55450Y-34099D01*
X55450Y-33837D01*
X55450Y-33400D01*
X54912Y-33400D01*
X54850Y-33462D01*
X54849Y-33699D01*
X54887Y-33791D01*
X54958Y-33861D01*
X55050Y-33899D01*
X55149Y-33900D01*
X55387Y-33900D01*
X55450Y-33837D01*
X55450Y-34099D01*
X55050Y-34099D01*
X54958Y-34137D01*
X54888Y-34208D01*
X54850Y-34300D01*
X54849Y-34399D01*
X54849Y-34450D01*
X54399Y-34450D01*
X54449Y-34449D01*
X54541Y-34411D01*
X54612Y-34341D01*
X54650Y-34249D01*
X54650Y-33550D01*
X54612Y-33458D01*
X54541Y-33388D01*
X54449Y-33350D01*
X54350Y-33349D01*
X54112Y-33350D01*
X54050Y-33412D01*
X54050Y-33850D01*
X54587Y-33850D01*
X54650Y-33787D01*
X54650Y-33550D01*
X54650Y-34249D01*
X54650Y-34012D01*
X54587Y-33950D01*
X54050Y-33950D01*
X54050Y-33957D01*
X53950Y-33957D01*
X53950Y-33950D01*
X53412Y-33950D01*
X53350Y-34012D01*
X53349Y-34249D01*
X53387Y-34341D01*
X53458Y-34411D01*
X53550Y-34449D01*
X53600Y-34450D01*
X52425Y-34450D01*
X52425Y-34415D01*
X52360Y-34259D01*
X52241Y-34139D01*
X52084Y-34075D01*
X51915Y-34074D01*
X51759Y-34139D01*
X51639Y-34258D01*
X51575Y-34415D01*
X51574Y-34584D01*
X51639Y-34740D01*
X51758Y-34860D01*
X51915Y-34924D01*
X52000Y-34925D01*
X52037Y-34962D01*
X52037Y-34962D01*
X52135Y-35027D01*
X52250Y-35050D01*
X52970Y-35050D01*
X52841Y-35103D01*
X52790Y-35219D01*
X53250Y-35679D01*
X53709Y-35219D01*
X53658Y-35103D01*
X53519Y-35050D01*
X54250Y-35050D01*
X54596Y-35050D01*
X54538Y-35108D01*
X54500Y-35200D01*
X54499Y-35299D01*
X54499Y-36299D01*
X54537Y-36391D01*
X54608Y-36461D01*
X54700Y-36499D01*
X54799Y-36500D01*
X55799Y-36500D01*
X55891Y-36462D01*
X55961Y-36391D01*
X55999Y-36299D01*
X56000Y-36200D01*
X56000Y-35200D01*
X55992Y-35182D01*
X56041Y-35162D01*
X56111Y-35091D01*
X56149Y-34999D01*
X56150Y-34900D01*
X56150Y-37200D01*
X54003Y-37200D01*
X54003Y-35879D01*
X53995Y-35581D01*
X53896Y-35341D01*
X53780Y-35290D01*
X53320Y-35750D01*
X53780Y-36209D01*
X53896Y-36158D01*
X54003Y-35879D01*
X54003Y-37200D01*
X53709Y-37200D01*
X53709Y-36280D01*
X53250Y-35820D01*
X53179Y-35891D01*
X53179Y-35750D01*
X52719Y-35290D01*
X52603Y-35341D01*
X52496Y-35620D01*
X52504Y-35918D01*
X52603Y-36158D01*
X52719Y-36209D01*
X53179Y-35750D01*
X53179Y-35891D01*
X52790Y-36280D01*
X52841Y-36396D01*
X53120Y-36503D01*
X53418Y-36495D01*
X53658Y-36396D01*
X53709Y-36280D01*
X53709Y-37200D01*
X52000Y-37200D01*
X52000Y-35601D01*
X51886Y-35325D01*
X51675Y-35114D01*
X51400Y-35000D01*
X51400Y-34749D01*
X51400Y-34512D01*
X51337Y-34450D01*
X50800Y-34450D01*
X50800Y-34887D01*
X50862Y-34950D01*
X51100Y-34950D01*
X51199Y-34949D01*
X51291Y-34911D01*
X51362Y-34841D01*
X51400Y-34749D01*
X51400Y-35000D01*
X51399Y-35000D01*
X51101Y-34999D01*
X50825Y-35113D01*
X50614Y-35324D01*
X50500Y-35600D01*
X50499Y-35898D01*
X50613Y-36174D01*
X50824Y-36385D01*
X51100Y-36499D01*
X51398Y-36500D01*
X51674Y-36386D01*
X51885Y-36175D01*
X51999Y-35899D01*
X52000Y-35601D01*
X52000Y-37200D01*
X47890Y-37200D01*
X47890Y-36461D01*
X47250Y-35820D01*
X46609Y-36461D01*
X46691Y-36603D01*
X47060Y-36751D01*
X47458Y-36748D01*
X47808Y-36603D01*
X47890Y-36461D01*
X47890Y-37200D01*
X43890Y-37200D01*
X43890Y-36461D01*
X43250Y-35820D01*
X43179Y-35891D01*
X43179Y-35750D01*
X42538Y-35109D01*
X42396Y-35191D01*
X42248Y-35560D01*
X42251Y-35958D01*
X42396Y-36308D01*
X42538Y-36390D01*
X43179Y-35750D01*
X43179Y-35891D01*
X42609Y-36461D01*
X42691Y-36603D01*
X43060Y-36751D01*
X43458Y-36748D01*
X43808Y-36603D01*
X43890Y-36461D01*
X43890Y-37200D01*
X41300Y-37200D01*
X41300Y-27529D01*
X45016Y-27529D01*
X44988Y-27558D01*
X44950Y-27650D01*
X44949Y-27749D01*
X44949Y-28349D01*
X44987Y-28441D01*
X45058Y-28511D01*
X45150Y-28549D01*
X45249Y-28550D01*
X45450Y-28550D01*
X45450Y-28746D01*
X45441Y-28738D01*
X45349Y-28700D01*
X45250Y-28699D01*
X45112Y-28700D01*
X45050Y-28762D01*
X45050Y-29200D01*
X45057Y-29200D01*
X45057Y-29300D01*
X45050Y-29300D01*
X45050Y-29307D01*
X44950Y-29307D01*
X44950Y-29300D01*
X44950Y-29200D01*
X44950Y-28762D01*
X44887Y-28700D01*
X44749Y-28699D01*
X44650Y-28700D01*
X44558Y-28738D01*
X44487Y-28808D01*
X44449Y-28900D01*
X44450Y-29137D01*
X44512Y-29200D01*
X44950Y-29200D01*
X44950Y-29300D01*
X44512Y-29300D01*
X44450Y-29362D01*
X44449Y-29599D01*
X44487Y-29691D01*
X44558Y-29761D01*
X44650Y-29799D01*
X44672Y-29799D01*
X44534Y-29938D01*
X44529Y-29950D01*
X43500Y-29950D01*
X43500Y-29700D01*
X43462Y-29608D01*
X43391Y-29538D01*
X43299Y-29500D01*
X43200Y-29499D01*
X42200Y-29499D01*
X42108Y-29537D01*
X42038Y-29608D01*
X42000Y-29700D01*
X41999Y-29799D01*
X41999Y-30799D01*
X42037Y-30891D01*
X42108Y-30961D01*
X42200Y-30999D01*
X42299Y-31000D01*
X43299Y-31000D01*
X43391Y-30962D01*
X43461Y-30891D01*
X43499Y-30799D01*
X43500Y-30700D01*
X43500Y-30550D01*
X44528Y-30550D01*
X44533Y-30561D01*
X44688Y-30715D01*
X44769Y-30749D01*
X44688Y-30783D01*
X44534Y-30938D01*
X44450Y-31140D01*
X44449Y-31358D01*
X44533Y-31561D01*
X44688Y-31715D01*
X44769Y-31749D01*
X44688Y-31783D01*
X44534Y-31938D01*
X44529Y-31950D01*
X43437Y-31950D01*
X43386Y-31825D01*
X43175Y-31614D01*
X42899Y-31500D01*
X42601Y-31499D01*
X42325Y-31613D01*
X42114Y-31824D01*
X42000Y-32100D01*
X41999Y-32398D01*
X42113Y-32674D01*
X42324Y-32885D01*
X42600Y-32999D01*
X42898Y-33000D01*
X43107Y-32913D01*
X43139Y-32990D01*
X43200Y-33051D01*
X43200Y-33350D01*
X43199Y-33349D01*
X42962Y-33350D01*
X42900Y-33412D01*
X42900Y-33950D01*
X42907Y-33950D01*
X42907Y-34050D01*
X42900Y-34050D01*
X42900Y-34587D01*
X42962Y-34650D01*
X43199Y-34650D01*
X43236Y-34634D01*
X43287Y-34712D01*
X43324Y-34749D01*
X43041Y-34751D01*
X42800Y-34851D01*
X42800Y-34587D01*
X42800Y-34050D01*
X42800Y-33950D01*
X42800Y-33412D01*
X42737Y-33350D01*
X42500Y-33349D01*
X42408Y-33387D01*
X42338Y-33458D01*
X42300Y-33550D01*
X42299Y-33649D01*
X42300Y-33887D01*
X42362Y-33950D01*
X42800Y-33950D01*
X42800Y-34050D01*
X42362Y-34050D01*
X42300Y-34112D01*
X42299Y-34350D01*
X42300Y-34449D01*
X42338Y-34541D01*
X42408Y-34612D01*
X42500Y-34650D01*
X42737Y-34650D01*
X42800Y-34587D01*
X42800Y-34851D01*
X42691Y-34896D01*
X42609Y-35038D01*
X43250Y-35679D01*
X43255Y-35673D01*
X43326Y-35744D01*
X43320Y-35750D01*
X43961Y-36390D01*
X44103Y-36308D01*
X44249Y-35944D01*
X44249Y-35948D01*
X44401Y-36315D01*
X44682Y-36597D01*
X45050Y-36749D01*
X45448Y-36750D01*
X45815Y-36598D01*
X46097Y-36317D01*
X46249Y-35949D01*
X46249Y-35754D01*
X46251Y-35958D01*
X46396Y-36308D01*
X46538Y-36390D01*
X47179Y-35750D01*
X46538Y-35109D01*
X46396Y-35191D01*
X46250Y-35555D01*
X46250Y-35551D01*
X46098Y-35184D01*
X45817Y-34902D01*
X45449Y-34750D01*
X45424Y-34750D01*
X45212Y-34537D01*
X45114Y-34472D01*
X45000Y-34450D01*
X44699Y-34450D01*
X44699Y-34449D01*
X44700Y-34350D01*
X44700Y-33974D01*
X44791Y-33882D01*
X44791Y-34100D01*
X44829Y-34192D01*
X44899Y-34262D01*
X44991Y-34301D01*
X45090Y-34301D01*
X45642Y-34301D01*
X45733Y-34263D01*
X45749Y-34247D01*
X45765Y-34262D01*
X45857Y-34301D01*
X45956Y-34301D01*
X46245Y-34301D01*
X46405Y-34462D01*
X46405Y-34462D01*
X46503Y-34527D01*
X46618Y-34549D01*
X46618Y-34550D01*
X47799Y-34550D01*
X47799Y-34699D01*
X47837Y-34791D01*
X47908Y-34861D01*
X48000Y-34899D01*
X48099Y-34900D01*
X48270Y-34900D01*
X48250Y-34950D01*
X48249Y-35049D01*
X48249Y-35740D01*
X48248Y-35541D01*
X48103Y-35191D01*
X47961Y-35109D01*
X47890Y-35180D01*
X47890Y-35038D01*
X47808Y-34896D01*
X47439Y-34748D01*
X47041Y-34751D01*
X46691Y-34896D01*
X46609Y-35038D01*
X47250Y-35679D01*
X47890Y-35038D01*
X47890Y-35180D01*
X47320Y-35750D01*
X47961Y-36390D01*
X48103Y-36308D01*
X48249Y-35943D01*
X48249Y-36549D01*
X48287Y-36641D01*
X48358Y-36711D01*
X48450Y-36749D01*
X48549Y-36750D01*
X50049Y-36750D01*
X50141Y-36712D01*
X50211Y-36641D01*
X50249Y-36549D01*
X50250Y-36450D01*
X50250Y-34950D01*
X50239Y-34924D01*
X50300Y-34949D01*
X50399Y-34950D01*
X50637Y-34950D01*
X50700Y-34887D01*
X50700Y-34450D01*
X50692Y-34450D01*
X50692Y-34350D01*
X50700Y-34350D01*
X50700Y-34342D01*
X50800Y-34342D01*
X50800Y-34350D01*
X51337Y-34350D01*
X51400Y-34287D01*
X51400Y-34050D01*
X51399Y-34050D01*
X52500Y-34050D01*
X52500Y-34049D01*
X52614Y-34027D01*
X52614Y-34027D01*
X52617Y-34025D01*
X52617Y-34025D01*
X53074Y-34025D01*
X53166Y-33987D01*
X53236Y-33916D01*
X53274Y-33824D01*
X53275Y-33725D01*
X53275Y-33649D01*
X53349Y-33574D01*
X53350Y-33787D01*
X53412Y-33850D01*
X53950Y-33850D01*
X53950Y-33412D01*
X53887Y-33350D01*
X53649Y-33349D01*
X53550Y-33350D01*
X53528Y-33359D01*
X53549Y-33250D01*
X53550Y-33250D01*
X53550Y-33149D01*
X53550Y-33149D01*
X53649Y-33150D01*
X54449Y-33150D01*
X54541Y-33112D01*
X54611Y-33041D01*
X54649Y-32949D01*
X54650Y-32850D01*
X54650Y-32250D01*
X54612Y-32158D01*
X54541Y-32088D01*
X54449Y-32050D01*
X54378Y-32049D01*
X54436Y-31991D01*
X54474Y-31899D01*
X54475Y-31800D01*
X54475Y-31600D01*
X54454Y-31550D01*
X54625Y-31550D01*
X54757Y-31681D01*
X54750Y-31700D01*
X54749Y-31799D01*
X54749Y-32799D01*
X54787Y-32891D01*
X54858Y-32961D01*
X54864Y-32964D01*
X54849Y-33000D01*
X54850Y-33237D01*
X54912Y-33300D01*
X55450Y-33300D01*
X55450Y-33292D01*
X55550Y-33292D01*
X55550Y-33300D01*
X56087Y-33300D01*
X56150Y-33237D01*
X56150Y-33000D01*
X56135Y-32964D01*
X56141Y-32962D01*
X56211Y-32891D01*
X56249Y-32799D01*
X56250Y-32700D01*
X56250Y-31700D01*
X56212Y-31608D01*
X56141Y-31538D01*
X56049Y-31500D01*
X55950Y-31499D01*
X55424Y-31499D01*
X54974Y-31050D01*
X55000Y-31050D01*
X55000Y-31049D01*
X55114Y-31027D01*
X55114Y-31027D01*
X55212Y-30962D01*
X55225Y-30948D01*
X55350Y-30999D01*
X55648Y-31000D01*
X55924Y-30886D01*
X56135Y-30675D01*
X56249Y-30399D01*
X56250Y-30101D01*
X56136Y-29825D01*
X55925Y-29614D01*
X55815Y-29568D01*
X55815Y-28385D01*
X55500Y-28070D01*
X55429Y-28141D01*
X55429Y-28000D01*
X55114Y-27684D01*
X55018Y-27712D01*
X55001Y-27760D01*
X54981Y-27712D01*
X54885Y-27684D01*
X54570Y-28000D01*
X54885Y-28315D01*
X54981Y-28287D01*
X54998Y-28239D01*
X55018Y-28287D01*
X55114Y-28315D01*
X55429Y-28000D01*
X55429Y-28141D01*
X55184Y-28385D01*
X55212Y-28481D01*
X55418Y-28554D01*
X55636Y-28543D01*
X55787Y-28481D01*
X55815Y-28385D01*
X55815Y-29568D01*
X55649Y-29500D01*
X55351Y-29499D01*
X55075Y-29613D01*
X54864Y-29824D01*
X54815Y-29943D01*
X54815Y-28385D01*
X54500Y-28070D01*
X54429Y-28141D01*
X54429Y-28000D01*
X54114Y-27684D01*
X54018Y-27712D01*
X54001Y-27760D01*
X53981Y-27712D01*
X53885Y-27684D01*
X53570Y-28000D01*
X53885Y-28315D01*
X53981Y-28287D01*
X53998Y-28239D01*
X54018Y-28287D01*
X54114Y-28315D01*
X54429Y-28000D01*
X54429Y-28141D01*
X54184Y-28385D01*
X54212Y-28481D01*
X54418Y-28554D01*
X54636Y-28543D01*
X54787Y-28481D01*
X54815Y-28385D01*
X54815Y-29943D01*
X54750Y-30100D01*
X54749Y-30398D01*
X54771Y-30450D01*
X54454Y-30450D01*
X54475Y-30399D01*
X54475Y-30100D01*
X54437Y-30008D01*
X54366Y-29938D01*
X54274Y-29900D01*
X54175Y-29899D01*
X54112Y-29900D01*
X54050Y-29962D01*
X54050Y-30200D01*
X54412Y-30200D01*
X54475Y-30137D01*
X54475Y-30100D01*
X54475Y-30399D01*
X54475Y-30362D01*
X54412Y-30300D01*
X54050Y-30300D01*
X54050Y-30307D01*
X53950Y-30307D01*
X53950Y-30300D01*
X53942Y-30300D01*
X53942Y-30200D01*
X53950Y-30200D01*
X53950Y-29962D01*
X53887Y-29900D01*
X53824Y-29899D01*
X53815Y-29899D01*
X53815Y-28385D01*
X53500Y-28070D01*
X53429Y-28141D01*
X53429Y-28000D01*
X53114Y-27684D01*
X53018Y-27712D01*
X53001Y-27760D01*
X52981Y-27712D01*
X52885Y-27684D01*
X52570Y-28000D01*
X52885Y-28315D01*
X52981Y-28287D01*
X52998Y-28239D01*
X53018Y-28287D01*
X53114Y-28315D01*
X53429Y-28000D01*
X53429Y-28141D01*
X53184Y-28385D01*
X53212Y-28481D01*
X53418Y-28554D01*
X53636Y-28543D01*
X53787Y-28481D01*
X53815Y-28385D01*
X53815Y-29899D01*
X53725Y-29900D01*
X53633Y-29938D01*
X53562Y-30008D01*
X53550Y-30039D01*
X53550Y-29879D01*
X53591Y-29862D01*
X53661Y-29791D01*
X53699Y-29699D01*
X53700Y-29600D01*
X53700Y-28800D01*
X53662Y-28708D01*
X53591Y-28638D01*
X53499Y-28600D01*
X53400Y-28599D01*
X52815Y-28599D01*
X52815Y-28385D01*
X52500Y-28070D01*
X52429Y-28141D01*
X52429Y-28000D01*
X52114Y-27684D01*
X52018Y-27712D01*
X52001Y-27760D01*
X51981Y-27712D01*
X51885Y-27684D01*
X51570Y-28000D01*
X51885Y-28315D01*
X51981Y-28287D01*
X51998Y-28239D01*
X52018Y-28287D01*
X52114Y-28315D01*
X52429Y-28000D01*
X52429Y-28141D01*
X52184Y-28385D01*
X52212Y-28481D01*
X52418Y-28554D01*
X52636Y-28543D01*
X52787Y-28481D01*
X52815Y-28385D01*
X52815Y-28599D01*
X52800Y-28599D01*
X52708Y-28637D01*
X52638Y-28708D01*
X52600Y-28800D01*
X52599Y-28899D01*
X52599Y-29699D01*
X52637Y-29791D01*
X52708Y-29861D01*
X52800Y-29899D01*
X52899Y-29900D01*
X52950Y-29900D01*
X52950Y-32000D01*
X52950Y-32013D01*
X52825Y-31970D01*
X52617Y-31981D01*
X52477Y-32039D01*
X52452Y-32132D01*
X52750Y-32429D01*
X52755Y-32423D01*
X52826Y-32494D01*
X52820Y-32500D01*
X52826Y-32505D01*
X52755Y-32576D01*
X52750Y-32570D01*
X52452Y-32867D01*
X52477Y-32960D01*
X52518Y-32974D01*
X52425Y-32974D01*
X52333Y-33012D01*
X52263Y-33083D01*
X52225Y-33175D01*
X52224Y-33274D01*
X52224Y-33450D01*
X51399Y-33450D01*
X51399Y-33449D01*
X51400Y-33350D01*
X51400Y-33274D01*
X51649Y-33024D01*
X51853Y-33025D01*
X52047Y-32945D01*
X52194Y-32797D01*
X52247Y-32671D01*
X52289Y-32772D01*
X52382Y-32797D01*
X52679Y-32500D01*
X52382Y-32202D01*
X52289Y-32227D01*
X52250Y-32337D01*
X52202Y-32221D01*
X52712Y-31712D01*
X52777Y-31614D01*
X52799Y-31500D01*
X52800Y-31500D01*
X52800Y-30750D01*
X52777Y-30635D01*
X52712Y-30537D01*
X52712Y-30537D01*
X52376Y-30202D01*
X52424Y-30084D01*
X52425Y-29915D01*
X52367Y-29777D01*
X52399Y-29699D01*
X52400Y-29600D01*
X52400Y-28800D01*
X52362Y-28708D01*
X52291Y-28638D01*
X52199Y-28600D01*
X52100Y-28599D01*
X51815Y-28599D01*
X51815Y-28385D01*
X51500Y-28070D01*
X51184Y-28385D01*
X51212Y-28481D01*
X51418Y-28554D01*
X51636Y-28543D01*
X51787Y-28481D01*
X51815Y-28385D01*
X51815Y-28599D01*
X51500Y-28599D01*
X51408Y-28637D01*
X51338Y-28708D01*
X51300Y-28800D01*
X51299Y-28899D01*
X51299Y-28950D01*
X50874Y-28950D01*
X50800Y-28875D01*
X50800Y-28471D01*
X50811Y-28466D01*
X50965Y-28311D01*
X50997Y-28236D01*
X51018Y-28287D01*
X51114Y-28315D01*
X51429Y-28000D01*
X51114Y-27684D01*
X51018Y-27712D01*
X50999Y-27767D01*
X50966Y-27688D01*
X50811Y-27534D01*
X50801Y-27529D01*
X51209Y-27529D01*
X51184Y-27614D01*
X51500Y-27929D01*
X51815Y-27614D01*
X51790Y-27529D01*
X52209Y-27529D01*
X52184Y-27614D01*
X52500Y-27929D01*
X52815Y-27614D01*
X52790Y-27529D01*
X53209Y-27529D01*
X53184Y-27614D01*
X53500Y-27929D01*
X53815Y-27614D01*
X53790Y-27529D01*
X54209Y-27529D01*
X54184Y-27614D01*
X54500Y-27929D01*
X54815Y-27614D01*
X54790Y-27529D01*
X55209Y-27529D01*
X55184Y-27614D01*
X55500Y-27929D01*
X55815Y-27614D01*
X55790Y-27529D01*
X56016Y-27529D01*
X55988Y-27558D01*
X55950Y-27650D01*
X55949Y-27703D01*
X55885Y-27684D01*
X55570Y-28000D01*
X55885Y-28315D01*
X55949Y-28296D01*
X55950Y-28349D01*
X55988Y-28441D01*
X56058Y-28512D01*
X56150Y-28550D01*
X56387Y-28550D01*
X56450Y-28487D01*
X56450Y-28050D01*
X56442Y-28050D01*
X56442Y-27950D01*
X56450Y-27950D01*
X56450Y-27942D01*
X56550Y-27942D01*
X56550Y-27950D01*
X56557Y-27950D01*
X56557Y-28050D01*
X56550Y-28050D01*
X56550Y-28487D01*
X56612Y-28550D01*
X56720Y-28550D01*
X56720Y-37200D01*
X56720Y-37200D01*
G37*
G54D26*
X56720Y-37200D02*
X56150Y-37200D01*
X56150Y-34900D01*
X56150Y-34300D01*
X56150Y-33699D01*
X56150Y-33462D01*
X56087Y-33400D01*
X55550Y-33400D01*
X55550Y-33837D01*
X55612Y-33900D01*
X55850Y-33900D01*
X55949Y-33899D01*
X56041Y-33861D01*
X56112Y-33791D01*
X56150Y-33699D01*
X56150Y-34300D01*
X56112Y-34208D01*
X56041Y-34138D01*
X55949Y-34100D01*
X55850Y-34099D01*
X55450Y-34099D01*
X55450Y-33837D01*
X55450Y-33400D01*
X54912Y-33400D01*
X54850Y-33462D01*
X54849Y-33699D01*
X54887Y-33791D01*
X54958Y-33861D01*
X55050Y-33899D01*
X55149Y-33900D01*
X55387Y-33900D01*
X55450Y-33837D01*
X55450Y-34099D01*
X55050Y-34099D01*
X54958Y-34137D01*
X54888Y-34208D01*
X54850Y-34300D01*
X54849Y-34399D01*
X54849Y-34450D01*
X54399Y-34450D01*
X54449Y-34449D01*
X54541Y-34411D01*
X54612Y-34341D01*
X54650Y-34249D01*
X54650Y-33550D01*
X54612Y-33458D01*
X54541Y-33388D01*
X54449Y-33350D01*
X54350Y-33349D01*
X54112Y-33350D01*
X54050Y-33412D01*
X54050Y-33850D01*
X54587Y-33850D01*
X54650Y-33787D01*
X54650Y-33550D01*
X54650Y-34249D01*
X54650Y-34012D01*
X54587Y-33950D01*
X54050Y-33950D01*
X54050Y-33957D01*
X53950Y-33957D01*
X53950Y-33950D01*
X53412Y-33950D01*
X53350Y-34012D01*
X53349Y-34249D01*
X53387Y-34341D01*
X53458Y-34411D01*
X53550Y-34449D01*
X53600Y-34450D01*
X52425Y-34450D01*
X52425Y-34415D01*
X52360Y-34259D01*
X52241Y-34139D01*
X52084Y-34075D01*
X51915Y-34074D01*
X51759Y-34139D01*
X51639Y-34258D01*
X51575Y-34415D01*
X51574Y-34584D01*
X51639Y-34740D01*
X51758Y-34860D01*
X51915Y-34924D01*
X52000Y-34925D01*
X52037Y-34962D01*
X52037Y-34962D01*
X52135Y-35027D01*
X52250Y-35050D01*
X52970Y-35050D01*
X52841Y-35103D01*
X52790Y-35219D01*
X53250Y-35679D01*
X53709Y-35219D01*
X53658Y-35103D01*
X53519Y-35050D01*
X54250Y-35050D01*
X54596Y-35050D01*
X54538Y-35108D01*
X54500Y-35200D01*
X54499Y-35299D01*
X54499Y-36299D01*
X54537Y-36391D01*
X54608Y-36461D01*
X54700Y-36499D01*
X54799Y-36500D01*
X55799Y-36500D01*
X55891Y-36462D01*
X55961Y-36391D01*
X55999Y-36299D01*
X56000Y-36200D01*
X56000Y-35200D01*
X55992Y-35182D01*
X56041Y-35162D01*
X56111Y-35091D01*
X56149Y-34999D01*
X56150Y-34900D01*
X56150Y-37200D01*
X54003Y-37200D01*
X54003Y-35879D01*
X53995Y-35581D01*
X53896Y-35341D01*
X53780Y-35290D01*
X53320Y-35750D01*
X53780Y-36209D01*
X53896Y-36158D01*
X54003Y-35879D01*
X54003Y-37200D01*
X53709Y-37200D01*
X53709Y-36280D01*
X53250Y-35820D01*
X53179Y-35891D01*
X53179Y-35750D01*
X52719Y-35290D01*
X52603Y-35341D01*
X52496Y-35620D01*
X52504Y-35918D01*
X52603Y-36158D01*
X52719Y-36209D01*
X53179Y-35750D01*
X53179Y-35891D01*
X52790Y-36280D01*
X52841Y-36396D01*
X53120Y-36503D01*
X53418Y-36495D01*
X53658Y-36396D01*
X53709Y-36280D01*
X53709Y-37200D01*
X52000Y-37200D01*
X52000Y-35601D01*
X51886Y-35325D01*
X51675Y-35114D01*
X51400Y-35000D01*
X51400Y-34749D01*
X51400Y-34512D01*
X51337Y-34450D01*
X50800Y-34450D01*
X50800Y-34887D01*
X50862Y-34950D01*
X51100Y-34950D01*
X51199Y-34949D01*
X51291Y-34911D01*
X51362Y-34841D01*
X51400Y-34749D01*
X51400Y-35000D01*
X51399Y-35000D01*
X51101Y-34999D01*
X50825Y-35113D01*
X50614Y-35324D01*
X50500Y-35600D01*
X50499Y-35898D01*
X50613Y-36174D01*
X50824Y-36385D01*
X51100Y-36499D01*
X51398Y-36500D01*
X51674Y-36386D01*
X51885Y-36175D01*
X51999Y-35899D01*
X52000Y-35601D01*
X52000Y-37200D01*
X47890Y-37200D01*
X47890Y-36461D01*
X47250Y-35820D01*
X46609Y-36461D01*
X46691Y-36603D01*
X47060Y-36751D01*
X47458Y-36748D01*
X47808Y-36603D01*
X47890Y-36461D01*
X47890Y-37200D01*
X43890Y-37200D01*
X43890Y-36461D01*
X43250Y-35820D01*
X43179Y-35891D01*
X43179Y-35750D01*
X42538Y-35109D01*
X42396Y-35191D01*
X42248Y-35560D01*
X42251Y-35958D01*
X42396Y-36308D01*
X42538Y-36390D01*
X43179Y-35750D01*
X43179Y-35891D01*
X42609Y-36461D01*
X42691Y-36603D01*
X43060Y-36751D01*
X43458Y-36748D01*
X43808Y-36603D01*
X43890Y-36461D01*
X43890Y-37200D01*
X41300Y-37200D01*
X41300Y-27529D01*
X45016Y-27529D01*
X44988Y-27558D01*
X44950Y-27650D01*
X44949Y-27749D01*
X44949Y-28349D01*
X44987Y-28441D01*
X45058Y-28511D01*
X45150Y-28549D01*
X45249Y-28550D01*
X45450Y-28550D01*
X45450Y-28746D01*
X45441Y-28738D01*
X45349Y-28700D01*
X45250Y-28699D01*
X45112Y-28700D01*
X45050Y-28762D01*
X45050Y-29200D01*
X45057Y-29200D01*
X45057Y-29300D01*
X45050Y-29300D01*
X45050Y-29307D01*
X44950Y-29307D01*
X44950Y-29300D01*
X44950Y-29200D01*
X44950Y-28762D01*
X44887Y-28700D01*
X44749Y-28699D01*
X44650Y-28700D01*
X44558Y-28738D01*
X44487Y-28808D01*
X44449Y-28900D01*
X44450Y-29137D01*
X44512Y-29200D01*
X44950Y-29200D01*
X44950Y-29300D01*
X44512Y-29300D01*
X44450Y-29362D01*
X44449Y-29599D01*
X44487Y-29691D01*
X44558Y-29761D01*
X44650Y-29799D01*
X44672Y-29799D01*
X44534Y-29938D01*
X44529Y-29950D01*
X43500Y-29950D01*
X43500Y-29700D01*
X43462Y-29608D01*
X43391Y-29538D01*
X43299Y-29500D01*
X43200Y-29499D01*
X42200Y-29499D01*
X42108Y-29537D01*
X42038Y-29608D01*
X42000Y-29700D01*
X41999Y-29799D01*
X41999Y-30799D01*
X42037Y-30891D01*
X42108Y-30961D01*
X42200Y-30999D01*
X42299Y-31000D01*
X43299Y-31000D01*
X43391Y-30962D01*
X43461Y-30891D01*
X43499Y-30799D01*
X43500Y-30700D01*
X43500Y-30550D01*
X44528Y-30550D01*
X44533Y-30561D01*
X44688Y-30715D01*
X44769Y-30749D01*
X44688Y-30783D01*
X44534Y-30938D01*
X44450Y-31140D01*
X44449Y-31358D01*
X44533Y-31561D01*
X44688Y-31715D01*
X44769Y-31749D01*
X44688Y-31783D01*
X44534Y-31938D01*
X44529Y-31950D01*
X43437Y-31950D01*
X43386Y-31825D01*
X43175Y-31614D01*
X42899Y-31500D01*
X42601Y-31499D01*
X42325Y-31613D01*
X42114Y-31824D01*
X42000Y-32100D01*
X41999Y-32398D01*
X42113Y-32674D01*
X42324Y-32885D01*
X42600Y-32999D01*
X42898Y-33000D01*
X43107Y-32913D01*
X43139Y-32990D01*
X43200Y-33051D01*
X43200Y-33350D01*
X43199Y-33349D01*
X42962Y-33350D01*
X42900Y-33412D01*
X42900Y-33950D01*
X42907Y-33950D01*
X42907Y-34050D01*
X42900Y-34050D01*
X42900Y-34587D01*
X42962Y-34650D01*
X43199Y-34650D01*
X43236Y-34634D01*
X43287Y-34712D01*
X43324Y-34749D01*
X43041Y-34751D01*
X42800Y-34851D01*
X42800Y-34587D01*
X42800Y-34050D01*
X42800Y-33950D01*
X42800Y-33412D01*
X42737Y-33350D01*
X42500Y-33349D01*
X42408Y-33387D01*
X42338Y-33458D01*
X42300Y-33550D01*
X42299Y-33649D01*
X42300Y-33887D01*
X42362Y-33950D01*
X42800Y-33950D01*
X42800Y-34050D01*
X42362Y-34050D01*
X42300Y-34112D01*
X42299Y-34350D01*
X42300Y-34449D01*
X42338Y-34541D01*
X42408Y-34612D01*
X42500Y-34650D01*
X42737Y-34650D01*
X42800Y-34587D01*
X42800Y-34851D01*
X42691Y-34896D01*
X42609Y-35038D01*
X43250Y-35679D01*
X43255Y-35673D01*
X43326Y-35744D01*
X43320Y-35750D01*
X43961Y-36390D01*
X44103Y-36308D01*
X44249Y-35944D01*
X44249Y-35948D01*
X44401Y-36315D01*
X44682Y-36597D01*
X45050Y-36749D01*
X45448Y-36750D01*
X45815Y-36598D01*
X46097Y-36317D01*
X46249Y-35949D01*
X46249Y-35754D01*
X46251Y-35958D01*
X46396Y-36308D01*
X46538Y-36390D01*
X47179Y-35750D01*
X46538Y-35109D01*
X46396Y-35191D01*
X46250Y-35555D01*
X46250Y-35551D01*
X46098Y-35184D01*
X45817Y-34902D01*
X45449Y-34750D01*
X45424Y-34750D01*
X45212Y-34537D01*
X45114Y-34472D01*
X45000Y-34450D01*
X44699Y-34450D01*
X44699Y-34449D01*
X44700Y-34350D01*
X44700Y-33974D01*
X44791Y-33882D01*
X44791Y-34100D01*
X44829Y-34192D01*
X44899Y-34262D01*
X44991Y-34301D01*
X45090Y-34301D01*
X45642Y-34301D01*
X45733Y-34263D01*
X45749Y-34247D01*
X45765Y-34262D01*
X45857Y-34301D01*
X45956Y-34301D01*
X46245Y-34301D01*
X46405Y-34462D01*
X46405Y-34462D01*
X46503Y-34527D01*
X46618Y-34549D01*
X46618Y-34550D01*
X47799Y-34550D01*
X47799Y-34699D01*
X47837Y-34791D01*
X47908Y-34861D01*
X48000Y-34899D01*
X48099Y-34900D01*
X48270Y-34900D01*
X48250Y-34950D01*
X48249Y-35049D01*
X48249Y-35740D01*
X48248Y-35541D01*
X48103Y-35191D01*
X47961Y-35109D01*
X47890Y-35180D01*
X47890Y-35038D01*
X47808Y-34896D01*
X47439Y-34748D01*
X47041Y-34751D01*
X46691Y-34896D01*
X46609Y-35038D01*
X47250Y-35679D01*
X47890Y-35038D01*
X47890Y-35180D01*
X47320Y-35750D01*
X47961Y-36390D01*
X48103Y-36308D01*
X48249Y-35943D01*
X48249Y-36549D01*
X48287Y-36641D01*
X48358Y-36711D01*
X48450Y-36749D01*
X48549Y-36750D01*
X50049Y-36750D01*
X50141Y-36712D01*
X50211Y-36641D01*
X50249Y-36549D01*
X50250Y-36450D01*
X50250Y-34950D01*
X50239Y-34924D01*
X50300Y-34949D01*
X50399Y-34950D01*
X50637Y-34950D01*
X50700Y-34887D01*
X50700Y-34450D01*
X50692Y-34450D01*
X50692Y-34350D01*
X50700Y-34350D01*
X50700Y-34342D01*
X50800Y-34342D01*
X50800Y-34350D01*
X51337Y-34350D01*
X51400Y-34287D01*
X51400Y-34050D01*
X51399Y-34050D01*
X52500Y-34050D01*
X52500Y-34049D01*
X52614Y-34027D01*
X52614Y-34027D01*
X52617Y-34025D01*
X52617Y-34025D01*
X53074Y-34025D01*
X53166Y-33987D01*
X53236Y-33916D01*
X53274Y-33824D01*
X53275Y-33725D01*
X53275Y-33649D01*
X53349Y-33574D01*
X53350Y-33787D01*
X53412Y-33850D01*
X53950Y-33850D01*
X53950Y-33412D01*
X53887Y-33350D01*
X53649Y-33349D01*
X53550Y-33350D01*
X53528Y-33359D01*
X53549Y-33250D01*
X53550Y-33250D01*
X53550Y-33149D01*
X53550Y-33149D01*
X53649Y-33150D01*
X54449Y-33150D01*
X54541Y-33112D01*
X54611Y-33041D01*
X54649Y-32949D01*
X54650Y-32850D01*
X54650Y-32250D01*
X54612Y-32158D01*
X54541Y-32088D01*
X54449Y-32050D01*
X54378Y-32049D01*
X54436Y-31991D01*
X54474Y-31899D01*
X54475Y-31800D01*
X54475Y-31600D01*
X54454Y-31550D01*
X54625Y-31550D01*
X54757Y-31681D01*
X54750Y-31700D01*
X54749Y-31799D01*
X54749Y-32799D01*
X54787Y-32891D01*
X54858Y-32961D01*
X54864Y-32964D01*
X54849Y-33000D01*
X54850Y-33237D01*
X54912Y-33300D01*
X55450Y-33300D01*
X55450Y-33292D01*
X55550Y-33292D01*
X55550Y-33300D01*
X56087Y-33300D01*
X56150Y-33237D01*
X56150Y-33000D01*
X56135Y-32964D01*
X56141Y-32962D01*
X56211Y-32891D01*
X56249Y-32799D01*
X56250Y-32700D01*
X56250Y-31700D01*
X56212Y-31608D01*
X56141Y-31538D01*
X56049Y-31500D01*
X55950Y-31499D01*
X55424Y-31499D01*
X54974Y-31050D01*
X55000Y-31050D01*
X55000Y-31049D01*
X55114Y-31027D01*
X55114Y-31027D01*
X55212Y-30962D01*
X55225Y-30948D01*
X55350Y-30999D01*
X55648Y-31000D01*
X55924Y-30886D01*
X56135Y-30675D01*
X56249Y-30399D01*
X56250Y-30101D01*
X56136Y-29825D01*
X55925Y-29614D01*
X55815Y-29568D01*
X55815Y-28385D01*
X55500Y-28070D01*
X55429Y-28141D01*
X55429Y-28000D01*
X55114Y-27684D01*
X55018Y-27712D01*
X55001Y-27760D01*
X54981Y-27712D01*
X54885Y-27684D01*
X54570Y-28000D01*
X54885Y-28315D01*
X54981Y-28287D01*
X54998Y-28239D01*
X55018Y-28287D01*
X55114Y-28315D01*
X55429Y-28000D01*
X55429Y-28141D01*
X55184Y-28385D01*
X55212Y-28481D01*
X55418Y-28554D01*
X55636Y-28543D01*
X55787Y-28481D01*
X55815Y-28385D01*
X55815Y-29568D01*
X55649Y-29500D01*
X55351Y-29499D01*
X55075Y-29613D01*
X54864Y-29824D01*
X54815Y-29943D01*
X54815Y-28385D01*
X54500Y-28070D01*
X54429Y-28141D01*
X54429Y-28000D01*
X54114Y-27684D01*
X54018Y-27712D01*
X54001Y-27760D01*
X53981Y-27712D01*
X53885Y-27684D01*
X53570Y-28000D01*
X53885Y-28315D01*
X53981Y-28287D01*
X53998Y-28239D01*
X54018Y-28287D01*
X54114Y-28315D01*
X54429Y-28000D01*
X54429Y-28141D01*
X54184Y-28385D01*
X54212Y-28481D01*
X54418Y-28554D01*
X54636Y-28543D01*
X54787Y-28481D01*
X54815Y-28385D01*
X54815Y-29943D01*
X54750Y-30100D01*
X54749Y-30398D01*
X54771Y-30450D01*
X54454Y-30450D01*
X54475Y-30399D01*
X54475Y-30100D01*
X54437Y-30008D01*
X54366Y-29938D01*
X54274Y-29900D01*
X54175Y-29899D01*
X54112Y-29900D01*
X54050Y-29962D01*
X54050Y-30200D01*
X54412Y-30200D01*
X54475Y-30137D01*
X54475Y-30100D01*
X54475Y-30399D01*
X54475Y-30362D01*
X54412Y-30300D01*
X54050Y-30300D01*
X54050Y-30307D01*
X53950Y-30307D01*
X53950Y-30300D01*
X53942Y-30300D01*
X53942Y-30200D01*
X53950Y-30200D01*
X53950Y-29962D01*
X53887Y-29900D01*
X53824Y-29899D01*
X53815Y-29899D01*
X53815Y-28385D01*
X53500Y-28070D01*
X53429Y-28141D01*
X53429Y-28000D01*
X53114Y-27684D01*
X53018Y-27712D01*
X53001Y-27760D01*
X52981Y-27712D01*
X52885Y-27684D01*
X52570Y-28000D01*
X52885Y-28315D01*
X52981Y-28287D01*
X52998Y-28239D01*
X53018Y-28287D01*
X53114Y-28315D01*
X53429Y-28000D01*
X53429Y-28141D01*
X53184Y-28385D01*
X53212Y-28481D01*
X53418Y-28554D01*
X53636Y-28543D01*
X53787Y-28481D01*
X53815Y-28385D01*
X53815Y-29899D01*
X53725Y-29900D01*
X53633Y-29938D01*
X53562Y-30008D01*
X53550Y-30039D01*
X53550Y-29879D01*
X53591Y-29862D01*
X53661Y-29791D01*
X53699Y-29699D01*
X53700Y-29600D01*
X53700Y-28800D01*
X53662Y-28708D01*
X53591Y-28638D01*
X53499Y-28600D01*
X53400Y-28599D01*
X52815Y-28599D01*
X52815Y-28385D01*
X52500Y-28070D01*
X52429Y-28141D01*
X52429Y-28000D01*
X52114Y-27684D01*
X52018Y-27712D01*
X52001Y-27760D01*
X51981Y-27712D01*
X51885Y-27684D01*
X51570Y-28000D01*
X51885Y-28315D01*
X51981Y-28287D01*
X51998Y-28239D01*
X52018Y-28287D01*
X52114Y-28315D01*
X52429Y-28000D01*
X52429Y-28141D01*
X52184Y-28385D01*
X52212Y-28481D01*
X52418Y-28554D01*
X52636Y-28543D01*
X52787Y-28481D01*
X52815Y-28385D01*
X52815Y-28599D01*
X52800Y-28599D01*
X52708Y-28637D01*
X52638Y-28708D01*
X52600Y-28800D01*
X52599Y-28899D01*
X52599Y-29699D01*
X52637Y-29791D01*
X52708Y-29861D01*
X52800Y-29899D01*
X52899Y-29900D01*
X52950Y-29900D01*
X52950Y-32000D01*
X52950Y-32013D01*
X52825Y-31970D01*
X52617Y-31981D01*
X52477Y-32039D01*
X52452Y-32132D01*
X52750Y-32429D01*
X52755Y-32423D01*
X52826Y-32494D01*
X52820Y-32500D01*
X52826Y-32505D01*
X52755Y-32576D01*
X52750Y-32570D01*
X52452Y-32867D01*
X52477Y-32960D01*
X52518Y-32974D01*
X52425Y-32974D01*
X52333Y-33012D01*
X52263Y-33083D01*
X52225Y-33175D01*
X52224Y-33274D01*
X52224Y-33450D01*
X51399Y-33450D01*
X51399Y-33449D01*
X51400Y-33350D01*
X51400Y-33274D01*
X51649Y-33024D01*
X51853Y-33025D01*
X52047Y-32945D01*
X52194Y-32797D01*
X52247Y-32671D01*
X52289Y-32772D01*
X52382Y-32797D01*
X52679Y-32500D01*
X52382Y-32202D01*
X52289Y-32227D01*
X52250Y-32337D01*
X52202Y-32221D01*
X52712Y-31712D01*
X52777Y-31614D01*
X52799Y-31500D01*
X52800Y-31500D01*
X52800Y-30750D01*
X52777Y-30635D01*
X52712Y-30537D01*
X52712Y-30537D01*
X52376Y-30202D01*
X52424Y-30084D01*
X52425Y-29915D01*
X52367Y-29777D01*
X52399Y-29699D01*
X52400Y-29600D01*
X52400Y-28800D01*
X52362Y-28708D01*
X52291Y-28638D01*
X52199Y-28600D01*
X52100Y-28599D01*
X51815Y-28599D01*
X51815Y-28385D01*
X51500Y-28070D01*
X51184Y-28385D01*
X51212Y-28481D01*
X51418Y-28554D01*
X51636Y-28543D01*
X51787Y-28481D01*
X51815Y-28385D01*
X51815Y-28599D01*
X51500Y-28599D01*
X51408Y-28637D01*
X51338Y-28708D01*
X51300Y-28800D01*
X51299Y-28899D01*
X51299Y-28950D01*
X50874Y-28950D01*
X50800Y-28875D01*
X50800Y-28471D01*
X50811Y-28466D01*
X50965Y-28311D01*
X50997Y-28236D01*
X51018Y-28287D01*
X51114Y-28315D01*
X51429Y-28000D01*
X51114Y-27684D01*
X51018Y-27712D01*
X50999Y-27767D01*
X50966Y-27688D01*
X50811Y-27534D01*
X50801Y-27529D01*
X51209Y-27529D01*
X51184Y-27614D01*
X51500Y-27929D01*
X51815Y-27614D01*
X51790Y-27529D01*
X52209Y-27529D01*
X52184Y-27614D01*
X52500Y-27929D01*
X52815Y-27614D01*
X52790Y-27529D01*
X53209Y-27529D01*
X53184Y-27614D01*
X53500Y-27929D01*
X53815Y-27614D01*
X53790Y-27529D01*
X54209Y-27529D01*
X54184Y-27614D01*
X54500Y-27929D01*
X54815Y-27614D01*
X54790Y-27529D01*
X55209Y-27529D01*
X55184Y-27614D01*
X55500Y-27929D01*
X55815Y-27614D01*
X55790Y-27529D01*
X56016Y-27529D01*
X55988Y-27558D01*
X55950Y-27650D01*
X55949Y-27703D01*
X55885Y-27684D01*
X55570Y-28000D01*
X55885Y-28315D01*
X55949Y-28296D01*
X55950Y-28349D01*
X55988Y-28441D01*
X56058Y-28512D01*
X56150Y-28550D01*
X56387Y-28550D01*
X56450Y-28487D01*
X56450Y-28050D01*
X56442Y-28050D01*
X56442Y-27950D01*
X56450Y-27950D01*
X56450Y-27942D01*
X56550Y-27942D01*
X56550Y-27950D01*
X56557Y-27950D01*
X56557Y-28050D01*
X56550Y-28050D01*
X56550Y-28487D01*
X56612Y-28550D01*
X56720Y-28550D01*
X56720Y-37200D01*
M02*
