M48
;DRILL file {Pcbnew (2013-dec-23)-stable} date Вт 14 апр 2015 10:36:00
;FORMAT={-:-/ absolute / metric / decimal}
FMAT,2
METRIC,TZ
T1C0.635
T2C0.813
T3C1.016
T4C1.524
%
G90
G05
M71
T1
X110.49Y-83.185
X115.57Y-80.645
X116.84Y-87.63
X120.65Y-79.375
X121.92Y-80.645
X123.825Y-82.55
X126.365Y-85.09
X127.Y-83.82
X132.08Y-76.2
X132.08Y-78.74
X132.08Y-87.63
T2
X131.445Y-82.55
X133.985Y-82.55
X133.985Y-85.09
T3
X114.3Y-74.295
X114.3Y-76.835
X114.3Y-79.375
X114.3Y-81.915
X115.57Y-71.12
X118.11Y-71.12
X120.65Y-71.12
X123.19Y-71.12
X125.73Y-71.12
X128.27Y-71.12
X130.81Y-71.12
X133.35Y-71.12
X135.89Y-71.12
X138.43Y-71.12
X140.97Y-71.12
X143.51Y-71.12
T4
X108.585Y-76.835
X108.585Y-81.915
X109.855Y-90.805
X114.935Y-90.805
X120.015Y-90.805
X125.095Y-90.805
X130.175Y-90.805
X135.255Y-90.805
X140.335Y-90.805
X140.97Y-76.835
X140.97Y-81.915
T0
M30
