G04 (created by PCBNEW (2013-dec-23)-stable) date Вт 14 апр 2015 12:36:29*
%MOIN*%
G04 Gerber Fmt 3.4, Leading zero omitted, Abs format*
%FSLAX34Y34*%
G01*
G70*
G90*
G04 APERTURE LIST*
%ADD10C,0.00590551*%
%ADD11R,0.08X0.06*%
%ADD12R,0.06X0.08*%
%ADD13R,0.1X0.1*%
%ADD14C,0.1*%
%ADD15R,0.06X0.06*%
%ADD16C,0.06*%
%ADD17R,0.055X0.055*%
%ADD18C,0.055*%
%ADD19R,0.0629X0.0709*%
%ADD20R,0.1004X0.1063*%
%ADD21R,0.1004X0.1496*%
%ADD22R,0.0709X0.0629*%
%ADD23C,0.15*%
%ADD24R,0.15X0.15*%
G04 APERTURE END LIST*
G54D10*
G54D11*
X49000Y-30600D03*
X49000Y-31900D03*
X54000Y-33650D03*
X54000Y-32350D03*
G54D12*
X47400Y-29250D03*
X46100Y-29250D03*
G54D13*
X55500Y-32250D03*
G54D14*
X55500Y-30250D03*
G54D13*
X42750Y-30250D03*
G54D14*
X42750Y-32250D03*
G54D15*
X56500Y-28000D03*
G54D16*
X55500Y-28000D03*
X54500Y-28000D03*
X53500Y-28000D03*
X52500Y-28000D03*
X51500Y-28000D03*
G54D15*
X45000Y-29250D03*
G54D16*
X45000Y-30250D03*
X45000Y-31250D03*
X45000Y-32250D03*
G54D15*
X45500Y-28000D03*
G54D16*
X46500Y-28000D03*
X47500Y-28000D03*
X48500Y-28000D03*
X49500Y-28000D03*
X50500Y-28000D03*
G54D17*
X52750Y-33500D03*
G54D18*
X52750Y-32500D03*
X51750Y-32500D03*
G54D19*
X48059Y-30250D03*
X46941Y-30250D03*
G54D20*
X50819Y-30500D03*
G54D21*
X53181Y-30500D03*
G54D22*
X50750Y-32691D03*
X50750Y-33809D03*
G54D23*
X47250Y-35750D03*
X45250Y-35750D03*
G54D24*
X49250Y-35750D03*
G54D23*
X43250Y-35750D03*
G54D13*
X55250Y-35750D03*
G54D14*
X53250Y-35750D03*
X51250Y-35750D03*
G54D12*
X50400Y-29250D03*
X49100Y-29250D03*
G54D19*
X52309Y-29250D03*
X51191Y-29250D03*
X49059Y-33250D03*
X47941Y-33250D03*
G54D11*
X46500Y-33400D03*
X46500Y-32100D03*
M02*
