G04 (created by PCBNEW (2013-dec-23)-stable) date Вт 14 апр 2015 10:35:36*
%MOIN*%
G04 Gerber Fmt 3.4, Leading zero omitted, Abs format*
%FSLAX34Y34*%
G01*
G70*
G90*
G04 APERTURE LIST*
%ADD10C,0.00590551*%
%ADD11C,0.00472441*%
%ADD12C,0.005*%
%ADD13C,0.012*%
%ADD14C,0.01*%
%ADD15C,0.0026*%
%ADD16C,0.004*%
%ADD17C,0.008*%
%ADD18C,0.0035*%
%ADD19C,0.0047*%
G04 APERTURE END LIST*
G54D10*
G54D11*
X42121Y-27909D02*
X42121Y-27515D01*
X42121Y-27665D02*
X42159Y-27646D01*
X42234Y-27646D01*
X42271Y-27665D01*
X42290Y-27684D01*
X42309Y-27721D01*
X42309Y-27834D01*
X42290Y-27871D01*
X42271Y-27890D01*
X42234Y-27909D01*
X42159Y-27909D01*
X42121Y-27890D01*
X42440Y-27646D02*
X42534Y-27909D01*
X42628Y-27646D02*
X42534Y-27909D01*
X42496Y-28003D01*
X42478Y-28021D01*
X42440Y-28040D01*
X43209Y-27703D02*
X43265Y-27721D01*
X43284Y-27740D01*
X43303Y-27778D01*
X43303Y-27834D01*
X43284Y-27871D01*
X43265Y-27890D01*
X43228Y-27909D01*
X43078Y-27909D01*
X43078Y-27515D01*
X43209Y-27515D01*
X43246Y-27534D01*
X43265Y-27553D01*
X43284Y-27590D01*
X43284Y-27628D01*
X43265Y-27665D01*
X43246Y-27684D01*
X43209Y-27703D01*
X43078Y-27703D01*
X43678Y-27534D02*
X43640Y-27515D01*
X43584Y-27515D01*
X43528Y-27534D01*
X43490Y-27571D01*
X43471Y-27609D01*
X43453Y-27684D01*
X43453Y-27740D01*
X43471Y-27815D01*
X43490Y-27853D01*
X43528Y-27890D01*
X43584Y-27909D01*
X43621Y-27909D01*
X43678Y-27890D01*
X43696Y-27871D01*
X43696Y-27740D01*
X43621Y-27740D01*
X41784Y-28507D02*
X41784Y-28245D01*
X41784Y-28320D02*
X41803Y-28282D01*
X41821Y-28264D01*
X41859Y-28245D01*
X41896Y-28245D01*
X42178Y-28489D02*
X42140Y-28507D01*
X42065Y-28507D01*
X42028Y-28489D01*
X42009Y-28451D01*
X42009Y-28301D01*
X42028Y-28264D01*
X42065Y-28245D01*
X42140Y-28245D01*
X42178Y-28264D01*
X42196Y-28301D01*
X42196Y-28339D01*
X42009Y-28376D01*
X42328Y-28245D02*
X42421Y-28507D01*
X42515Y-28245D01*
X43171Y-28507D02*
X42946Y-28507D01*
X43059Y-28507D02*
X43059Y-28114D01*
X43021Y-28170D01*
X42984Y-28207D01*
X42946Y-28226D01*
X43340Y-28470D02*
X43359Y-28489D01*
X43340Y-28507D01*
X43321Y-28489D01*
X43340Y-28470D01*
X43340Y-28507D01*
X43734Y-28507D02*
X43509Y-28507D01*
X43621Y-28507D02*
X43621Y-28114D01*
X43584Y-28170D01*
X43546Y-28207D01*
X43509Y-28226D01*
G54D12*
X49450Y-30250D02*
X48550Y-30250D01*
X48550Y-30250D02*
X48550Y-30900D01*
X49450Y-31600D02*
X49450Y-32250D01*
X49450Y-32250D02*
X48550Y-32250D01*
X48550Y-32250D02*
X48550Y-31600D01*
X49450Y-30900D02*
X49450Y-30250D01*
X53550Y-34000D02*
X54450Y-34000D01*
X54450Y-34000D02*
X54450Y-33350D01*
X53550Y-32650D02*
X53550Y-32000D01*
X53550Y-32000D02*
X54450Y-32000D01*
X54450Y-32000D02*
X54450Y-32650D01*
X53550Y-33350D02*
X53550Y-34000D01*
X47750Y-29700D02*
X47750Y-28800D01*
X47750Y-28800D02*
X47100Y-28800D01*
X46400Y-29700D02*
X45750Y-29700D01*
X45750Y-29700D02*
X45750Y-28800D01*
X45750Y-28800D02*
X46400Y-28800D01*
X47100Y-29700D02*
X47750Y-29700D01*
G54D13*
X56500Y-29250D02*
X56500Y-33250D01*
X57000Y-29250D02*
X54000Y-29250D01*
X54000Y-29250D02*
X54000Y-33250D01*
X54000Y-33250D02*
X57000Y-33250D01*
X57000Y-33250D02*
X57000Y-29250D01*
X41750Y-33250D02*
X41750Y-29250D01*
X41250Y-33250D02*
X44250Y-33250D01*
X44250Y-33250D02*
X44250Y-29250D01*
X44250Y-29250D02*
X41250Y-29250D01*
X41250Y-29250D02*
X41250Y-33250D01*
X57000Y-27500D02*
X57000Y-28500D01*
X57000Y-28500D02*
X51000Y-28500D01*
X51000Y-28500D02*
X51000Y-27500D01*
X51000Y-27500D02*
X57000Y-27500D01*
X56000Y-27500D02*
X56000Y-28500D01*
G54D14*
X44500Y-32750D02*
X44500Y-28750D01*
X45500Y-32750D02*
X45500Y-28750D01*
X45500Y-28750D02*
X44500Y-28750D01*
X44500Y-32750D02*
X45500Y-32750D01*
G54D13*
X45000Y-28500D02*
X45000Y-27500D01*
X45000Y-27500D02*
X51000Y-27500D01*
X51000Y-27500D02*
X51000Y-28500D01*
X51000Y-28500D02*
X45000Y-28500D01*
X46000Y-28500D02*
X46000Y-27500D01*
X51250Y-32500D02*
X52750Y-34000D01*
X52750Y-34000D02*
X53250Y-34000D01*
X53250Y-34000D02*
X53750Y-33500D01*
X53750Y-33500D02*
X53750Y-32500D01*
X53750Y-32500D02*
X52750Y-31500D01*
X52750Y-31500D02*
X51750Y-31500D01*
X51750Y-31500D02*
X51250Y-32000D01*
X51250Y-32000D02*
X51250Y-32500D01*
G54D15*
X47539Y-30211D02*
X47461Y-30211D01*
X47461Y-30211D02*
X47461Y-30289D01*
X47539Y-30289D02*
X47461Y-30289D01*
X47539Y-30211D02*
X47539Y-30289D01*
X47323Y-29975D02*
X47186Y-29975D01*
X47186Y-29975D02*
X47186Y-30073D01*
X47323Y-30073D02*
X47186Y-30073D01*
X47323Y-29975D02*
X47323Y-30073D01*
X47186Y-29975D02*
X47146Y-29975D01*
X47146Y-29975D02*
X47146Y-30446D01*
X47186Y-30446D02*
X47146Y-30446D01*
X47186Y-29975D02*
X47186Y-30446D01*
X47186Y-30466D02*
X47146Y-30466D01*
X47146Y-30466D02*
X47146Y-30525D01*
X47186Y-30525D02*
X47146Y-30525D01*
X47186Y-30466D02*
X47186Y-30525D01*
X47854Y-29975D02*
X47814Y-29975D01*
X47814Y-29975D02*
X47814Y-30446D01*
X47854Y-30446D02*
X47814Y-30446D01*
X47854Y-29975D02*
X47854Y-30446D01*
X47854Y-30466D02*
X47814Y-30466D01*
X47814Y-30466D02*
X47814Y-30525D01*
X47854Y-30525D02*
X47814Y-30525D01*
X47854Y-30466D02*
X47854Y-30525D01*
X47323Y-29975D02*
X47264Y-29975D01*
X47264Y-29975D02*
X47264Y-30073D01*
X47323Y-30073D02*
X47264Y-30073D01*
X47323Y-29975D02*
X47323Y-30073D01*
G54D16*
X46890Y-29955D02*
X48110Y-29955D01*
X48110Y-29955D02*
X48110Y-30545D01*
X48110Y-30545D02*
X46890Y-30545D01*
X46890Y-30545D02*
X46890Y-29955D01*
X47715Y-30053D02*
G75*
G03X47283Y-30054I-215J-196D01*
G74*
G01*
X47715Y-30446D02*
G75*
G03X47716Y-30054I-215J196D01*
G74*
G01*
X47284Y-30446D02*
G75*
G03X47716Y-30445I215J196D01*
G74*
G01*
X47284Y-30053D02*
G75*
G03X47283Y-30445I215J-196D01*
G74*
G01*
G54D12*
X51000Y-31350D02*
X51000Y-29650D01*
X53450Y-31350D02*
X53450Y-29650D01*
X53450Y-29650D02*
X50550Y-29650D01*
X50550Y-29650D02*
X50550Y-31350D01*
X50550Y-31350D02*
X53450Y-31350D01*
G54D15*
X50711Y-33211D02*
X50711Y-33289D01*
X50711Y-33289D02*
X50789Y-33289D01*
X50789Y-33211D02*
X50789Y-33289D01*
X50711Y-33211D02*
X50789Y-33211D01*
X50475Y-33427D02*
X50475Y-33564D01*
X50475Y-33564D02*
X50573Y-33564D01*
X50573Y-33427D02*
X50573Y-33564D01*
X50475Y-33427D02*
X50573Y-33427D01*
X50475Y-33564D02*
X50475Y-33604D01*
X50475Y-33604D02*
X50946Y-33604D01*
X50946Y-33564D02*
X50946Y-33604D01*
X50475Y-33564D02*
X50946Y-33564D01*
X50966Y-33564D02*
X50966Y-33604D01*
X50966Y-33604D02*
X51025Y-33604D01*
X51025Y-33564D02*
X51025Y-33604D01*
X50966Y-33564D02*
X51025Y-33564D01*
X50475Y-32896D02*
X50475Y-32936D01*
X50475Y-32936D02*
X50946Y-32936D01*
X50946Y-32896D02*
X50946Y-32936D01*
X50475Y-32896D02*
X50946Y-32896D01*
X50966Y-32896D02*
X50966Y-32936D01*
X50966Y-32936D02*
X51025Y-32936D01*
X51025Y-32896D02*
X51025Y-32936D01*
X50966Y-32896D02*
X51025Y-32896D01*
X50475Y-33427D02*
X50475Y-33486D01*
X50475Y-33486D02*
X50573Y-33486D01*
X50573Y-33427D02*
X50573Y-33486D01*
X50475Y-33427D02*
X50573Y-33427D01*
G54D16*
X50455Y-33860D02*
X50455Y-32640D01*
X50455Y-32640D02*
X51045Y-32640D01*
X51045Y-32640D02*
X51045Y-33860D01*
X51045Y-33860D02*
X50455Y-33860D01*
X50553Y-33034D02*
G75*
G03X50554Y-33466I196J-215D01*
G74*
G01*
X50946Y-33034D02*
G75*
G03X50554Y-33033I-196J-215D01*
G74*
G01*
X50946Y-33465D02*
G75*
G03X50945Y-33033I-196J215D01*
G74*
G01*
X50553Y-33465D02*
G75*
G03X50945Y-33466I196J215D01*
G74*
G01*
G54D13*
X48250Y-34250D02*
X48250Y-37250D01*
X56250Y-37250D02*
X56250Y-34250D01*
X56250Y-36750D02*
X48250Y-36750D01*
X48250Y-34250D02*
X56250Y-34250D01*
X48250Y-37250D02*
X56250Y-37250D01*
X42250Y-37250D02*
X42250Y-34250D01*
X48250Y-37250D02*
X48250Y-34250D01*
X42250Y-36750D02*
X48250Y-36750D01*
X42250Y-34250D02*
X48250Y-34250D01*
X42250Y-37250D02*
X48250Y-37250D01*
G54D12*
X50750Y-29700D02*
X50750Y-28800D01*
X50750Y-28800D02*
X50100Y-28800D01*
X49400Y-29700D02*
X48750Y-29700D01*
X48750Y-29700D02*
X48750Y-28800D01*
X48750Y-28800D02*
X49400Y-28800D01*
X50100Y-29700D02*
X50750Y-29700D01*
G54D15*
X51789Y-29211D02*
X51711Y-29211D01*
X51711Y-29211D02*
X51711Y-29289D01*
X51789Y-29289D02*
X51711Y-29289D01*
X51789Y-29211D02*
X51789Y-29289D01*
X51573Y-28975D02*
X51436Y-28975D01*
X51436Y-28975D02*
X51436Y-29073D01*
X51573Y-29073D02*
X51436Y-29073D01*
X51573Y-28975D02*
X51573Y-29073D01*
X51436Y-28975D02*
X51396Y-28975D01*
X51396Y-28975D02*
X51396Y-29446D01*
X51436Y-29446D02*
X51396Y-29446D01*
X51436Y-28975D02*
X51436Y-29446D01*
X51436Y-29466D02*
X51396Y-29466D01*
X51396Y-29466D02*
X51396Y-29525D01*
X51436Y-29525D02*
X51396Y-29525D01*
X51436Y-29466D02*
X51436Y-29525D01*
X52104Y-28975D02*
X52064Y-28975D01*
X52064Y-28975D02*
X52064Y-29446D01*
X52104Y-29446D02*
X52064Y-29446D01*
X52104Y-28975D02*
X52104Y-29446D01*
X52104Y-29466D02*
X52064Y-29466D01*
X52064Y-29466D02*
X52064Y-29525D01*
X52104Y-29525D02*
X52064Y-29525D01*
X52104Y-29466D02*
X52104Y-29525D01*
X51573Y-28975D02*
X51514Y-28975D01*
X51514Y-28975D02*
X51514Y-29073D01*
X51573Y-29073D02*
X51514Y-29073D01*
X51573Y-28975D02*
X51573Y-29073D01*
G54D16*
X51140Y-28955D02*
X52360Y-28955D01*
X52360Y-28955D02*
X52360Y-29545D01*
X52360Y-29545D02*
X51140Y-29545D01*
X51140Y-29545D02*
X51140Y-28955D01*
X51965Y-29053D02*
G75*
G03X51533Y-29054I-215J-196D01*
G74*
G01*
X51965Y-29446D02*
G75*
G03X51966Y-29054I-215J196D01*
G74*
G01*
X51534Y-29446D02*
G75*
G03X51966Y-29445I215J196D01*
G74*
G01*
X51534Y-29053D02*
G75*
G03X51533Y-29445I215J-196D01*
G74*
G01*
G54D15*
X48539Y-33211D02*
X48461Y-33211D01*
X48461Y-33211D02*
X48461Y-33289D01*
X48539Y-33289D02*
X48461Y-33289D01*
X48539Y-33211D02*
X48539Y-33289D01*
X48323Y-32975D02*
X48186Y-32975D01*
X48186Y-32975D02*
X48186Y-33073D01*
X48323Y-33073D02*
X48186Y-33073D01*
X48323Y-32975D02*
X48323Y-33073D01*
X48186Y-32975D02*
X48146Y-32975D01*
X48146Y-32975D02*
X48146Y-33446D01*
X48186Y-33446D02*
X48146Y-33446D01*
X48186Y-32975D02*
X48186Y-33446D01*
X48186Y-33466D02*
X48146Y-33466D01*
X48146Y-33466D02*
X48146Y-33525D01*
X48186Y-33525D02*
X48146Y-33525D01*
X48186Y-33466D02*
X48186Y-33525D01*
X48854Y-32975D02*
X48814Y-32975D01*
X48814Y-32975D02*
X48814Y-33446D01*
X48854Y-33446D02*
X48814Y-33446D01*
X48854Y-32975D02*
X48854Y-33446D01*
X48854Y-33466D02*
X48814Y-33466D01*
X48814Y-33466D02*
X48814Y-33525D01*
X48854Y-33525D02*
X48814Y-33525D01*
X48854Y-33466D02*
X48854Y-33525D01*
X48323Y-32975D02*
X48264Y-32975D01*
X48264Y-32975D02*
X48264Y-33073D01*
X48323Y-33073D02*
X48264Y-33073D01*
X48323Y-32975D02*
X48323Y-33073D01*
G54D16*
X47890Y-32955D02*
X49110Y-32955D01*
X49110Y-32955D02*
X49110Y-33545D01*
X49110Y-33545D02*
X47890Y-33545D01*
X47890Y-33545D02*
X47890Y-32955D01*
X48715Y-33053D02*
G75*
G03X48283Y-33054I-215J-196D01*
G74*
G01*
X48715Y-33446D02*
G75*
G03X48716Y-33054I-215J196D01*
G74*
G01*
X48284Y-33446D02*
G75*
G03X48716Y-33445I215J196D01*
G74*
G01*
X48284Y-33053D02*
G75*
G03X48283Y-33445I215J-196D01*
G74*
G01*
G54D12*
X46050Y-33750D02*
X46950Y-33750D01*
X46950Y-33750D02*
X46950Y-33100D01*
X46050Y-32400D02*
X46050Y-31750D01*
X46050Y-31750D02*
X46950Y-31750D01*
X46950Y-31750D02*
X46950Y-32400D01*
X46050Y-33100D02*
X46050Y-33750D01*
X49121Y-31300D02*
X48978Y-31400D01*
X49121Y-31471D02*
X48821Y-31471D01*
X48821Y-31357D01*
X48835Y-31328D01*
X48850Y-31314D01*
X48878Y-31300D01*
X48921Y-31300D01*
X48950Y-31314D01*
X48964Y-31328D01*
X48978Y-31357D01*
X48978Y-31471D01*
X49121Y-31014D02*
X49121Y-31185D01*
X49121Y-31100D02*
X48821Y-31100D01*
X48864Y-31128D01*
X48892Y-31157D01*
X48907Y-31185D01*
X54092Y-33050D02*
X54107Y-33064D01*
X54121Y-33107D01*
X54121Y-33135D01*
X54107Y-33178D01*
X54078Y-33207D01*
X54050Y-33221D01*
X53992Y-33235D01*
X53950Y-33235D01*
X53892Y-33221D01*
X53864Y-33207D01*
X53835Y-33178D01*
X53821Y-33135D01*
X53821Y-33107D01*
X53835Y-33064D01*
X53850Y-33050D01*
X53921Y-32792D02*
X54121Y-32792D01*
X53807Y-32864D02*
X54021Y-32935D01*
X54021Y-32750D01*
X46700Y-29342D02*
X46685Y-29357D01*
X46642Y-29371D01*
X46614Y-29371D01*
X46571Y-29357D01*
X46542Y-29328D01*
X46528Y-29300D01*
X46514Y-29242D01*
X46514Y-29200D01*
X46528Y-29142D01*
X46542Y-29114D01*
X46571Y-29085D01*
X46614Y-29071D01*
X46642Y-29071D01*
X46685Y-29085D01*
X46700Y-29100D01*
X46971Y-29071D02*
X46828Y-29071D01*
X46814Y-29214D01*
X46828Y-29200D01*
X46857Y-29185D01*
X46928Y-29185D01*
X46957Y-29200D01*
X46971Y-29214D01*
X46985Y-29242D01*
X46985Y-29314D01*
X46971Y-29342D01*
X46957Y-29357D01*
X46928Y-29371D01*
X46857Y-29371D01*
X46828Y-29357D01*
X46814Y-29342D01*
G54D13*
X56428Y-32778D02*
X56457Y-32692D01*
X56485Y-32664D01*
X56542Y-32635D01*
X56628Y-32635D01*
X56685Y-32664D01*
X56714Y-32692D01*
X56742Y-32750D01*
X56742Y-32978D01*
X56142Y-32978D01*
X56142Y-32778D01*
X56171Y-32721D01*
X56200Y-32692D01*
X56257Y-32664D01*
X56314Y-32664D01*
X56371Y-32692D01*
X56400Y-32721D01*
X56428Y-32778D01*
X56428Y-32978D01*
X56342Y-31664D02*
X56742Y-31664D01*
X56114Y-31807D02*
X56542Y-31950D01*
X56542Y-31578D01*
X56400Y-31264D02*
X56371Y-31321D01*
X56342Y-31350D01*
X56285Y-31378D01*
X56257Y-31378D01*
X56200Y-31350D01*
X56171Y-31321D01*
X56142Y-31264D01*
X56142Y-31150D01*
X56171Y-31092D01*
X56200Y-31064D01*
X56257Y-31035D01*
X56285Y-31035D01*
X56342Y-31064D01*
X56371Y-31092D01*
X56400Y-31150D01*
X56400Y-31264D01*
X56428Y-31321D01*
X56457Y-31350D01*
X56514Y-31378D01*
X56628Y-31378D01*
X56685Y-31350D01*
X56714Y-31321D01*
X56742Y-31264D01*
X56742Y-31150D01*
X56714Y-31092D01*
X56685Y-31064D01*
X56628Y-31035D01*
X56514Y-31035D01*
X56457Y-31064D01*
X56428Y-31092D01*
X56400Y-31150D01*
X56142Y-30492D02*
X56142Y-30778D01*
X56428Y-30807D01*
X56400Y-30778D01*
X56371Y-30721D01*
X56371Y-30578D01*
X56400Y-30521D01*
X56428Y-30492D01*
X56485Y-30464D01*
X56628Y-30464D01*
X56685Y-30492D01*
X56714Y-30521D01*
X56742Y-30578D01*
X56742Y-30721D01*
X56714Y-30778D01*
X56685Y-30807D01*
X56571Y-29778D02*
X56571Y-29492D01*
X56742Y-29835D02*
X56142Y-29635D01*
X56742Y-29435D01*
X41992Y-32892D02*
X41392Y-32892D01*
X41392Y-32664D01*
X41421Y-32607D01*
X41450Y-32578D01*
X41507Y-32550D01*
X41592Y-32550D01*
X41650Y-32578D01*
X41678Y-32607D01*
X41707Y-32664D01*
X41707Y-32892D01*
X41964Y-32321D02*
X41992Y-32235D01*
X41992Y-32092D01*
X41964Y-32035D01*
X41935Y-32007D01*
X41878Y-31978D01*
X41821Y-31978D01*
X41764Y-32007D01*
X41735Y-32035D01*
X41707Y-32092D01*
X41678Y-32207D01*
X41650Y-32264D01*
X41621Y-32292D01*
X41564Y-32321D01*
X41507Y-32321D01*
X41450Y-32292D01*
X41421Y-32264D01*
X41392Y-32207D01*
X41392Y-32064D01*
X41421Y-31978D01*
X41592Y-31464D02*
X41992Y-31464D01*
X41592Y-31721D02*
X41907Y-31721D01*
X41964Y-31692D01*
X41992Y-31635D01*
X41992Y-31549D01*
X41964Y-31492D01*
X41935Y-31464D01*
X41592Y-31178D02*
X42192Y-31178D01*
X41621Y-31178D02*
X41592Y-31121D01*
X41592Y-31007D01*
X41621Y-30949D01*
X41650Y-30921D01*
X41707Y-30892D01*
X41878Y-30892D01*
X41935Y-30921D01*
X41964Y-30949D01*
X41992Y-31007D01*
X41992Y-31121D01*
X41964Y-31178D01*
X41592Y-30635D02*
X42192Y-30635D01*
X41621Y-30635D02*
X41592Y-30578D01*
X41592Y-30464D01*
X41621Y-30407D01*
X41650Y-30378D01*
X41707Y-30350D01*
X41878Y-30350D01*
X41935Y-30378D01*
X41964Y-30407D01*
X41992Y-30464D01*
X41992Y-30578D01*
X41964Y-30635D01*
X41992Y-30007D02*
X41964Y-30064D01*
X41907Y-30092D01*
X41392Y-30092D01*
X41592Y-29835D02*
X41992Y-29692D01*
X41592Y-29549D02*
X41992Y-29692D01*
X42135Y-29749D01*
X42164Y-29778D01*
X42192Y-29835D01*
G54D17*
X45704Y-30911D02*
X45704Y-30511D01*
X45800Y-30511D01*
X45857Y-30530D01*
X45895Y-30569D01*
X45914Y-30607D01*
X45933Y-30683D01*
X45933Y-30740D01*
X45914Y-30816D01*
X45895Y-30854D01*
X45857Y-30892D01*
X45800Y-30911D01*
X45704Y-30911D01*
X46085Y-30550D02*
X46104Y-30530D01*
X46142Y-30511D01*
X46238Y-30511D01*
X46276Y-30530D01*
X46295Y-30550D01*
X46314Y-30588D01*
X46314Y-30626D01*
X46295Y-30683D01*
X46066Y-30911D01*
X46314Y-30911D01*
G54D18*
X46907Y-31121D02*
X46907Y-30821D01*
X47021Y-30821D01*
X47050Y-30835D01*
X47064Y-30850D01*
X47078Y-30878D01*
X47078Y-30921D01*
X47064Y-30950D01*
X47050Y-30964D01*
X47021Y-30978D01*
X46907Y-30978D01*
X47250Y-31121D02*
X47221Y-31107D01*
X47207Y-31092D01*
X47192Y-31064D01*
X47192Y-30978D01*
X47207Y-30950D01*
X47221Y-30935D01*
X47250Y-30921D01*
X47292Y-30921D01*
X47321Y-30935D01*
X47335Y-30950D01*
X47350Y-30978D01*
X47350Y-31064D01*
X47335Y-31092D01*
X47321Y-31107D01*
X47292Y-31121D01*
X47250Y-31121D01*
X47450Y-30921D02*
X47507Y-31121D01*
X47564Y-30978D01*
X47621Y-31121D01*
X47678Y-30921D01*
X47907Y-31107D02*
X47878Y-31121D01*
X47821Y-31121D01*
X47792Y-31107D01*
X47778Y-31078D01*
X47778Y-30964D01*
X47792Y-30935D01*
X47821Y-30921D01*
X47878Y-30921D01*
X47907Y-30935D01*
X47921Y-30964D01*
X47921Y-30992D01*
X47778Y-31021D01*
X48050Y-31121D02*
X48050Y-30921D01*
X48050Y-30978D02*
X48064Y-30950D01*
X48078Y-30935D01*
X48107Y-30921D01*
X48135Y-30921D01*
G54D19*
X51967Y-31635D02*
X51957Y-31645D01*
X51929Y-31654D01*
X51910Y-31654D01*
X51882Y-31645D01*
X51863Y-31626D01*
X51854Y-31607D01*
X51845Y-31570D01*
X51845Y-31542D01*
X51854Y-31504D01*
X51863Y-31485D01*
X51882Y-31467D01*
X51910Y-31457D01*
X51929Y-31457D01*
X51957Y-31467D01*
X51967Y-31476D01*
X52154Y-31654D02*
X52042Y-31654D01*
X52098Y-31654D02*
X52098Y-31457D01*
X52079Y-31485D01*
X52060Y-31504D01*
X52042Y-31514D01*
G54D18*
X49821Y-33371D02*
X49721Y-33228D01*
X49650Y-33371D02*
X49650Y-33071D01*
X49764Y-33071D01*
X49792Y-33085D01*
X49807Y-33100D01*
X49821Y-33128D01*
X49821Y-33171D01*
X49807Y-33200D01*
X49792Y-33214D01*
X49764Y-33228D01*
X49650Y-33228D01*
X49921Y-33371D02*
X50078Y-33171D01*
X49921Y-33171D02*
X50078Y-33371D01*
X50192Y-33371D02*
X50192Y-33071D01*
X50264Y-33071D01*
X50307Y-33085D01*
X50335Y-33114D01*
X50350Y-33142D01*
X50364Y-33200D01*
X50364Y-33242D01*
X50350Y-33300D01*
X50335Y-33328D01*
X50307Y-33357D01*
X50264Y-33371D01*
X50192Y-33371D01*
G54D13*
G54D12*
X49700Y-29371D02*
X49600Y-29228D01*
X49528Y-29371D02*
X49528Y-29071D01*
X49642Y-29071D01*
X49671Y-29085D01*
X49685Y-29100D01*
X49700Y-29128D01*
X49700Y-29171D01*
X49685Y-29200D01*
X49671Y-29214D01*
X49642Y-29228D01*
X49528Y-29228D01*
X49957Y-29171D02*
X49957Y-29371D01*
X49885Y-29057D02*
X49814Y-29271D01*
X50000Y-29271D01*
G54D18*
X52642Y-29071D02*
X52814Y-29071D01*
X52728Y-29371D02*
X52728Y-29071D01*
X52885Y-29371D02*
X53042Y-29171D01*
X52885Y-29171D02*
X53042Y-29371D01*
X53157Y-29371D02*
X53157Y-29071D01*
X53228Y-29071D01*
X53271Y-29085D01*
X53300Y-29114D01*
X53314Y-29142D01*
X53328Y-29200D01*
X53328Y-29242D01*
X53314Y-29300D01*
X53300Y-29328D01*
X53271Y-29357D01*
X53228Y-29371D01*
X53157Y-29371D01*
X47850Y-32757D02*
X47892Y-32771D01*
X47964Y-32771D01*
X47992Y-32757D01*
X48007Y-32742D01*
X48021Y-32714D01*
X48021Y-32685D01*
X48007Y-32657D01*
X47992Y-32642D01*
X47964Y-32628D01*
X47907Y-32614D01*
X47878Y-32600D01*
X47864Y-32585D01*
X47850Y-32557D01*
X47850Y-32528D01*
X47864Y-32500D01*
X47878Y-32485D01*
X47907Y-32471D01*
X47978Y-32471D01*
X48021Y-32485D01*
X48107Y-32571D02*
X48221Y-32571D01*
X48150Y-32471D02*
X48150Y-32728D01*
X48164Y-32757D01*
X48192Y-32771D01*
X48221Y-32771D01*
X48450Y-32771D02*
X48450Y-32614D01*
X48435Y-32585D01*
X48407Y-32571D01*
X48350Y-32571D01*
X48321Y-32585D01*
X48450Y-32757D02*
X48421Y-32771D01*
X48350Y-32771D01*
X48321Y-32757D01*
X48307Y-32728D01*
X48307Y-32700D01*
X48321Y-32671D01*
X48350Y-32657D01*
X48421Y-32657D01*
X48450Y-32642D01*
X48550Y-32571D02*
X48664Y-32571D01*
X48592Y-32471D02*
X48592Y-32728D01*
X48607Y-32757D01*
X48635Y-32771D01*
X48664Y-32771D01*
X48892Y-32571D02*
X48892Y-32771D01*
X48764Y-32571D02*
X48764Y-32728D01*
X48778Y-32757D01*
X48807Y-32771D01*
X48850Y-32771D01*
X48878Y-32757D01*
X48892Y-32742D01*
X49021Y-32757D02*
X49050Y-32771D01*
X49107Y-32771D01*
X49135Y-32757D01*
X49150Y-32728D01*
X49150Y-32714D01*
X49135Y-32685D01*
X49107Y-32671D01*
X49064Y-32671D01*
X49035Y-32657D01*
X49021Y-32628D01*
X49021Y-32614D01*
X49035Y-32585D01*
X49064Y-32571D01*
X49107Y-32571D01*
X49135Y-32585D01*
G54D12*
X46621Y-32800D02*
X46478Y-32900D01*
X46621Y-32971D02*
X46321Y-32971D01*
X46321Y-32857D01*
X46335Y-32828D01*
X46350Y-32814D01*
X46378Y-32800D01*
X46421Y-32800D01*
X46450Y-32814D01*
X46464Y-32828D01*
X46478Y-32857D01*
X46478Y-32971D01*
X46321Y-32528D02*
X46321Y-32671D01*
X46464Y-32685D01*
X46450Y-32671D01*
X46435Y-32642D01*
X46435Y-32571D01*
X46450Y-32542D01*
X46464Y-32528D01*
X46492Y-32514D01*
X46564Y-32514D01*
X46592Y-32528D01*
X46607Y-32542D01*
X46621Y-32571D01*
X46621Y-32642D01*
X46607Y-32671D01*
X46592Y-32685D01*
M02*
