G04 (created by PCBNEW (2013-dec-23)-stable) date Вт 14 апр 2015 10:35:36*
%MOIN*%
G04 Gerber Fmt 3.4, Leading zero omitted, Abs format*
%FSLAX34Y34*%
G01*
G70*
G90*
G04 APERTURE LIST*
%ADD10C,0.00590551*%
%ADD11R,0.08X0.06*%
%ADD12R,0.06X0.08*%
%ADD13R,0.1X0.1*%
%ADD14C,0.1*%
%ADD15R,0.06X0.06*%
%ADD16C,0.06*%
%ADD17R,0.055X0.055*%
%ADD18C,0.055*%
%ADD19R,0.0629X0.0709*%
%ADD20R,0.1004X0.1063*%
%ADD21R,0.1004X0.1496*%
%ADD22R,0.0709X0.0629*%
%ADD23C,0.15*%
%ADD24R,0.15X0.15*%
%ADD25C,0.035*%
%ADD26C,0.01*%
G04 APERTURE END LIST*
G54D10*
G54D11*
X49000Y-30600D03*
X49000Y-31900D03*
X54000Y-33650D03*
X54000Y-32350D03*
G54D12*
X47400Y-29250D03*
X46100Y-29250D03*
G54D13*
X55500Y-32250D03*
G54D14*
X55500Y-30250D03*
G54D13*
X42750Y-30250D03*
G54D14*
X42750Y-32250D03*
G54D15*
X56500Y-28000D03*
G54D16*
X55500Y-28000D03*
X54500Y-28000D03*
X53500Y-28000D03*
X52500Y-28000D03*
X51500Y-28000D03*
G54D15*
X45000Y-29250D03*
G54D16*
X45000Y-30250D03*
X45000Y-31250D03*
X45000Y-32250D03*
G54D15*
X45500Y-28000D03*
G54D16*
X46500Y-28000D03*
X47500Y-28000D03*
X48500Y-28000D03*
X49500Y-28000D03*
X50500Y-28000D03*
G54D17*
X52750Y-33500D03*
G54D18*
X52750Y-32500D03*
X51750Y-32500D03*
G54D19*
X48059Y-30250D03*
X46941Y-30250D03*
G54D20*
X50819Y-30500D03*
G54D21*
X53181Y-30500D03*
G54D22*
X50750Y-32691D03*
X50750Y-33809D03*
G54D23*
X47250Y-35750D03*
X45250Y-35750D03*
G54D24*
X49250Y-35750D03*
G54D23*
X43250Y-35750D03*
G54D13*
X55250Y-35750D03*
G54D14*
X53250Y-35750D03*
X51250Y-35750D03*
G54D12*
X50400Y-29250D03*
X49100Y-29250D03*
G54D19*
X52309Y-29250D03*
X51191Y-29250D03*
X49059Y-33250D03*
X47941Y-33250D03*
G54D11*
X46500Y-33400D03*
X46500Y-32100D03*
G54D25*
X46000Y-34500D03*
X48750Y-32500D03*
X48000Y-31750D03*
X52000Y-34500D03*
X52000Y-31000D03*
X49750Y-33500D03*
X52000Y-30000D03*
X43500Y-32750D03*
X45500Y-31750D03*
X50000Y-33000D03*
X47500Y-31250D03*
G54D26*
X45750Y-34250D02*
X46000Y-34500D01*
X46150Y-32100D02*
X45750Y-32500D01*
X45750Y-32500D02*
X45750Y-34250D01*
X46500Y-32100D02*
X46150Y-32100D01*
X46500Y-32100D02*
X47650Y-32100D01*
X47650Y-32100D02*
X48000Y-31750D01*
X48750Y-32500D02*
X48250Y-32500D01*
X48000Y-32250D02*
X48000Y-31750D01*
X48250Y-32500D02*
X48000Y-32250D01*
X49100Y-29250D02*
X48500Y-29250D01*
X46250Y-29250D02*
X46100Y-29250D01*
X47000Y-28500D02*
X46250Y-29250D01*
X47750Y-28500D02*
X47000Y-28500D01*
X48500Y-29250D02*
X47750Y-28500D01*
X53181Y-31000D02*
X52931Y-32319D01*
X52931Y-32319D02*
X52750Y-32500D01*
X46941Y-30250D02*
X46941Y-30091D01*
X46941Y-30091D02*
X46100Y-29250D01*
X54000Y-32350D02*
X52900Y-32350D01*
X52900Y-32350D02*
X52750Y-32500D01*
X45000Y-29250D02*
X46100Y-29250D01*
X43750Y-35750D02*
X43250Y-35750D01*
X43750Y-35750D02*
X43250Y-35750D01*
X50400Y-29250D02*
X51191Y-29250D01*
X50750Y-33809D02*
X51309Y-33809D01*
X51309Y-33809D02*
X52000Y-34500D01*
X52000Y-31000D02*
X51750Y-31000D01*
X51250Y-31500D02*
X51250Y-32000D01*
X51250Y-31500D02*
X51250Y-31500D01*
X51750Y-31000D02*
X51250Y-31500D01*
X50750Y-32500D02*
X50750Y-32691D01*
X51250Y-32000D02*
X50750Y-32500D01*
X49441Y-33191D02*
X49000Y-33191D01*
X49750Y-33500D02*
X49441Y-33191D01*
X47941Y-33250D02*
X47250Y-33250D01*
X47000Y-33500D02*
X46400Y-33500D01*
X47250Y-33250D02*
X47000Y-33500D01*
X52250Y-29309D02*
X52309Y-29250D01*
X52250Y-29750D02*
X52250Y-29309D01*
X52000Y-30000D02*
X52250Y-29750D01*
X48059Y-30250D02*
X48650Y-30250D01*
X48650Y-30250D02*
X49000Y-30600D01*
X45000Y-31250D02*
X46750Y-31250D01*
X50750Y-30500D02*
X50819Y-30500D01*
X49750Y-31250D02*
X50750Y-30500D01*
X49500Y-31250D02*
X49750Y-31250D01*
X49250Y-31250D02*
X49500Y-31250D01*
X48000Y-31250D02*
X49250Y-31250D01*
X47500Y-31750D02*
X48000Y-31250D01*
X47250Y-31750D02*
X47500Y-31750D01*
X46750Y-31250D02*
X47250Y-31750D01*
X44250Y-31250D02*
X45000Y-31250D01*
X44000Y-31500D02*
X44250Y-31250D01*
X44000Y-32250D02*
X44000Y-31500D01*
X43500Y-32750D02*
X44000Y-32250D01*
X45500Y-35750D02*
X45250Y-35750D01*
X50819Y-30500D02*
X52250Y-30500D01*
X52250Y-30500D02*
X52500Y-30750D01*
X52500Y-30750D02*
X52500Y-31750D01*
X52500Y-31750D02*
X51750Y-32500D01*
X44750Y-34500D02*
X45500Y-34500D01*
X45500Y-31750D02*
X44500Y-31750D01*
X44500Y-31750D02*
X44250Y-32000D01*
X44250Y-32000D02*
X44250Y-34000D01*
X44250Y-34000D02*
X44750Y-34500D01*
X54500Y-35000D02*
X55250Y-35750D01*
X52000Y-35000D02*
X54500Y-35000D01*
X51750Y-34750D02*
X52000Y-35000D01*
X46500Y-34750D02*
X51750Y-34750D01*
X46250Y-35000D02*
X46500Y-34750D01*
X46000Y-35000D02*
X46250Y-35000D01*
X45500Y-34500D02*
X46000Y-35000D01*
X49000Y-31900D02*
X49000Y-32000D01*
X49000Y-32000D02*
X50000Y-33000D01*
X47400Y-29250D02*
X47400Y-29650D01*
X47500Y-29750D02*
X47500Y-31250D01*
X47400Y-29650D02*
X47500Y-29750D01*
X52750Y-33500D02*
X53850Y-33500D01*
X53850Y-33500D02*
X54000Y-33650D01*
G54D10*
G36*
X51525Y-34450D02*
X46500Y-34450D01*
X46385Y-34472D01*
X46287Y-34537D01*
X46125Y-34700D01*
X46124Y-34700D01*
X45712Y-34287D01*
X45614Y-34222D01*
X45500Y-34200D01*
X44874Y-34200D01*
X44550Y-33875D01*
X44550Y-32577D01*
X44688Y-32715D01*
X44890Y-32799D01*
X45108Y-32800D01*
X45311Y-32716D01*
X45465Y-32561D01*
X45549Y-32359D01*
X45550Y-32175D01*
X45584Y-32175D01*
X45740Y-32110D01*
X45856Y-31994D01*
X45912Y-32050D01*
X46450Y-32050D01*
X46450Y-31612D01*
X46387Y-31550D01*
X46612Y-31550D01*
X46550Y-31612D01*
X46550Y-32050D01*
X47087Y-32050D01*
X47120Y-32017D01*
X47135Y-32027D01*
X47250Y-32050D01*
X47500Y-32050D01*
X47500Y-32049D01*
X47614Y-32027D01*
X47614Y-32027D01*
X47712Y-31962D01*
X48124Y-31550D01*
X48350Y-31550D01*
X48350Y-31550D01*
X48349Y-31649D01*
X48349Y-32249D01*
X48387Y-32341D01*
X48458Y-32411D01*
X48550Y-32449D01*
X48649Y-32450D01*
X49025Y-32450D01*
X49221Y-32645D01*
X48694Y-32645D01*
X48603Y-32683D01*
X48532Y-32753D01*
X48499Y-32832D01*
X48467Y-32754D01*
X48397Y-32683D01*
X48305Y-32645D01*
X48205Y-32645D01*
X47576Y-32645D01*
X47485Y-32683D01*
X47414Y-32753D01*
X47376Y-32845D01*
X47376Y-32945D01*
X47376Y-32950D01*
X47250Y-32950D01*
X47150Y-32969D01*
X47150Y-32449D01*
X47150Y-32212D01*
X47087Y-32150D01*
X46550Y-32150D01*
X46550Y-32587D01*
X46612Y-32650D01*
X46850Y-32650D01*
X46949Y-32649D01*
X47041Y-32611D01*
X47112Y-32541D01*
X47150Y-32449D01*
X47150Y-32969D01*
X47135Y-32972D01*
X47121Y-32981D01*
X47112Y-32958D01*
X47041Y-32888D01*
X46949Y-32850D01*
X46850Y-32849D01*
X46450Y-32849D01*
X46450Y-32587D01*
X46450Y-32150D01*
X45912Y-32150D01*
X45850Y-32212D01*
X45849Y-32449D01*
X45887Y-32541D01*
X45958Y-32611D01*
X46050Y-32649D01*
X46149Y-32650D01*
X46387Y-32650D01*
X46450Y-32587D01*
X46450Y-32849D01*
X46050Y-32849D01*
X45958Y-32887D01*
X45888Y-32958D01*
X45850Y-33050D01*
X45849Y-33149D01*
X45849Y-33749D01*
X45887Y-33841D01*
X45958Y-33911D01*
X46050Y-33949D01*
X46149Y-33950D01*
X46949Y-33950D01*
X47041Y-33912D01*
X47111Y-33841D01*
X47147Y-33755D01*
X47147Y-33755D01*
X47212Y-33712D01*
X47374Y-33550D01*
X47376Y-33550D01*
X47376Y-33654D01*
X47414Y-33745D01*
X47484Y-33816D01*
X47576Y-33854D01*
X47676Y-33854D01*
X48305Y-33854D01*
X48396Y-33816D01*
X48467Y-33746D01*
X48500Y-33667D01*
X48532Y-33745D01*
X48602Y-33816D01*
X48694Y-33854D01*
X48794Y-33854D01*
X49423Y-33854D01*
X49479Y-33831D01*
X49508Y-33860D01*
X49665Y-33924D01*
X49834Y-33925D01*
X49990Y-33860D01*
X50110Y-33741D01*
X50145Y-33655D01*
X50145Y-34173D01*
X50183Y-34264D01*
X50253Y-34335D01*
X50345Y-34373D01*
X50445Y-34373D01*
X51154Y-34373D01*
X51245Y-34335D01*
X51316Y-34265D01*
X51323Y-34247D01*
X51525Y-34450D01*
X51525Y-34450D01*
G37*
G54D26*
X51525Y-34450D02*
X46500Y-34450D01*
X46385Y-34472D01*
X46287Y-34537D01*
X46125Y-34700D01*
X46124Y-34700D01*
X45712Y-34287D01*
X45614Y-34222D01*
X45500Y-34200D01*
X44874Y-34200D01*
X44550Y-33875D01*
X44550Y-32577D01*
X44688Y-32715D01*
X44890Y-32799D01*
X45108Y-32800D01*
X45311Y-32716D01*
X45465Y-32561D01*
X45549Y-32359D01*
X45550Y-32175D01*
X45584Y-32175D01*
X45740Y-32110D01*
X45856Y-31994D01*
X45912Y-32050D01*
X46450Y-32050D01*
X46450Y-31612D01*
X46387Y-31550D01*
X46612Y-31550D01*
X46550Y-31612D01*
X46550Y-32050D01*
X47087Y-32050D01*
X47120Y-32017D01*
X47135Y-32027D01*
X47250Y-32050D01*
X47500Y-32050D01*
X47500Y-32049D01*
X47614Y-32027D01*
X47614Y-32027D01*
X47712Y-31962D01*
X48124Y-31550D01*
X48350Y-31550D01*
X48350Y-31550D01*
X48349Y-31649D01*
X48349Y-32249D01*
X48387Y-32341D01*
X48458Y-32411D01*
X48550Y-32449D01*
X48649Y-32450D01*
X49025Y-32450D01*
X49221Y-32645D01*
X48694Y-32645D01*
X48603Y-32683D01*
X48532Y-32753D01*
X48499Y-32832D01*
X48467Y-32754D01*
X48397Y-32683D01*
X48305Y-32645D01*
X48205Y-32645D01*
X47576Y-32645D01*
X47485Y-32683D01*
X47414Y-32753D01*
X47376Y-32845D01*
X47376Y-32945D01*
X47376Y-32950D01*
X47250Y-32950D01*
X47150Y-32969D01*
X47150Y-32449D01*
X47150Y-32212D01*
X47087Y-32150D01*
X46550Y-32150D01*
X46550Y-32587D01*
X46612Y-32650D01*
X46850Y-32650D01*
X46949Y-32649D01*
X47041Y-32611D01*
X47112Y-32541D01*
X47150Y-32449D01*
X47150Y-32969D01*
X47135Y-32972D01*
X47121Y-32981D01*
X47112Y-32958D01*
X47041Y-32888D01*
X46949Y-32850D01*
X46850Y-32849D01*
X46450Y-32849D01*
X46450Y-32587D01*
X46450Y-32150D01*
X45912Y-32150D01*
X45850Y-32212D01*
X45849Y-32449D01*
X45887Y-32541D01*
X45958Y-32611D01*
X46050Y-32649D01*
X46149Y-32650D01*
X46387Y-32650D01*
X46450Y-32587D01*
X46450Y-32849D01*
X46050Y-32849D01*
X45958Y-32887D01*
X45888Y-32958D01*
X45850Y-33050D01*
X45849Y-33149D01*
X45849Y-33749D01*
X45887Y-33841D01*
X45958Y-33911D01*
X46050Y-33949D01*
X46149Y-33950D01*
X46949Y-33950D01*
X47041Y-33912D01*
X47111Y-33841D01*
X47147Y-33755D01*
X47147Y-33755D01*
X47212Y-33712D01*
X47374Y-33550D01*
X47376Y-33550D01*
X47376Y-33654D01*
X47414Y-33745D01*
X47484Y-33816D01*
X47576Y-33854D01*
X47676Y-33854D01*
X48305Y-33854D01*
X48396Y-33816D01*
X48467Y-33746D01*
X48500Y-33667D01*
X48532Y-33745D01*
X48602Y-33816D01*
X48694Y-33854D01*
X48794Y-33854D01*
X49423Y-33854D01*
X49479Y-33831D01*
X49508Y-33860D01*
X49665Y-33924D01*
X49834Y-33925D01*
X49990Y-33860D01*
X50110Y-33741D01*
X50145Y-33655D01*
X50145Y-34173D01*
X50183Y-34264D01*
X50253Y-34335D01*
X50345Y-34373D01*
X50445Y-34373D01*
X51154Y-34373D01*
X51245Y-34335D01*
X51316Y-34265D01*
X51323Y-34247D01*
X51525Y-34450D01*
G54D10*
G36*
X56720Y-37200D02*
X56250Y-37200D01*
X56250Y-30101D01*
X56136Y-29825D01*
X55925Y-29614D01*
X55815Y-29568D01*
X55815Y-28385D01*
X55500Y-28070D01*
X55429Y-28141D01*
X55429Y-28000D01*
X55114Y-27684D01*
X55018Y-27712D01*
X55001Y-27760D01*
X54981Y-27712D01*
X54885Y-27684D01*
X54570Y-28000D01*
X54885Y-28315D01*
X54981Y-28287D01*
X54998Y-28239D01*
X55018Y-28287D01*
X55114Y-28315D01*
X55429Y-28000D01*
X55429Y-28141D01*
X55184Y-28385D01*
X55212Y-28481D01*
X55418Y-28554D01*
X55636Y-28543D01*
X55787Y-28481D01*
X55815Y-28385D01*
X55815Y-29568D01*
X55649Y-29500D01*
X55351Y-29499D01*
X55075Y-29613D01*
X54864Y-29824D01*
X54815Y-29943D01*
X54815Y-28385D01*
X54500Y-28070D01*
X54429Y-28141D01*
X54429Y-28000D01*
X54114Y-27684D01*
X54018Y-27712D01*
X54001Y-27760D01*
X53981Y-27712D01*
X53885Y-27684D01*
X53570Y-28000D01*
X53885Y-28315D01*
X53981Y-28287D01*
X53998Y-28239D01*
X54018Y-28287D01*
X54114Y-28315D01*
X54429Y-28000D01*
X54429Y-28141D01*
X54184Y-28385D01*
X54212Y-28481D01*
X54418Y-28554D01*
X54636Y-28543D01*
X54787Y-28481D01*
X54815Y-28385D01*
X54815Y-29943D01*
X54750Y-30100D01*
X54749Y-30398D01*
X54863Y-30674D01*
X55074Y-30885D01*
X55350Y-30999D01*
X55648Y-31000D01*
X55924Y-30886D01*
X56135Y-30675D01*
X56249Y-30399D01*
X56250Y-30101D01*
X56250Y-37200D01*
X56250Y-37200D01*
X56250Y-32700D01*
X56250Y-31700D01*
X56212Y-31608D01*
X56141Y-31538D01*
X56049Y-31500D01*
X55950Y-31499D01*
X54950Y-31499D01*
X54858Y-31537D01*
X54788Y-31608D01*
X54750Y-31700D01*
X54749Y-31799D01*
X54749Y-32799D01*
X54787Y-32891D01*
X54858Y-32961D01*
X54950Y-32999D01*
X55049Y-33000D01*
X56049Y-33000D01*
X56141Y-32962D01*
X56211Y-32891D01*
X56249Y-32799D01*
X56250Y-32700D01*
X56250Y-37200D01*
X56000Y-37200D01*
X56000Y-36200D01*
X56000Y-35200D01*
X55962Y-35108D01*
X55891Y-35038D01*
X55799Y-35000D01*
X55700Y-34999D01*
X54924Y-34999D01*
X54712Y-34787D01*
X54650Y-34746D01*
X54650Y-33900D01*
X54650Y-33300D01*
X54650Y-32699D01*
X54650Y-32000D01*
X54612Y-31908D01*
X54541Y-31838D01*
X54449Y-31800D01*
X54350Y-31799D01*
X54112Y-31800D01*
X54050Y-31862D01*
X54050Y-32300D01*
X54587Y-32300D01*
X54650Y-32237D01*
X54650Y-32000D01*
X54650Y-32699D01*
X54650Y-32462D01*
X54587Y-32400D01*
X54050Y-32400D01*
X54050Y-32837D01*
X54112Y-32900D01*
X54350Y-32900D01*
X54449Y-32899D01*
X54541Y-32861D01*
X54612Y-32791D01*
X54650Y-32699D01*
X54650Y-33300D01*
X54612Y-33208D01*
X54541Y-33138D01*
X54449Y-33100D01*
X54350Y-33099D01*
X53950Y-33099D01*
X53950Y-32837D01*
X53950Y-32400D01*
X53950Y-32300D01*
X53950Y-31862D01*
X53933Y-31845D01*
X53933Y-31198D01*
X53933Y-29801D01*
X53932Y-29702D01*
X53894Y-29610D01*
X53824Y-29539D01*
X53815Y-29536D01*
X53815Y-28385D01*
X53500Y-28070D01*
X53429Y-28141D01*
X53429Y-28000D01*
X53114Y-27684D01*
X53018Y-27712D01*
X53001Y-27760D01*
X52981Y-27712D01*
X52885Y-27684D01*
X52570Y-28000D01*
X52885Y-28315D01*
X52981Y-28287D01*
X52998Y-28239D01*
X53018Y-28287D01*
X53114Y-28315D01*
X53429Y-28000D01*
X53429Y-28141D01*
X53184Y-28385D01*
X53212Y-28481D01*
X53418Y-28554D01*
X53636Y-28543D01*
X53787Y-28481D01*
X53815Y-28385D01*
X53815Y-29536D01*
X53732Y-29501D01*
X53293Y-29502D01*
X53231Y-29564D01*
X53231Y-30450D01*
X53870Y-30450D01*
X53933Y-30387D01*
X53933Y-29801D01*
X53933Y-31198D01*
X53933Y-30612D01*
X53870Y-30550D01*
X53231Y-30550D01*
X53231Y-31435D01*
X53293Y-31498D01*
X53732Y-31498D01*
X53824Y-31460D01*
X53894Y-31389D01*
X53932Y-31297D01*
X53933Y-31198D01*
X53933Y-31845D01*
X53887Y-31800D01*
X53649Y-31799D01*
X53550Y-31800D01*
X53458Y-31838D01*
X53387Y-31908D01*
X53349Y-32000D01*
X53350Y-32237D01*
X53412Y-32300D01*
X53950Y-32300D01*
X53950Y-32400D01*
X53412Y-32400D01*
X53350Y-32462D01*
X53349Y-32699D01*
X53387Y-32791D01*
X53458Y-32861D01*
X53550Y-32899D01*
X53649Y-32900D01*
X53887Y-32900D01*
X53950Y-32837D01*
X53950Y-33099D01*
X53550Y-33099D01*
X53458Y-33137D01*
X53396Y-33200D01*
X53279Y-33200D01*
X53279Y-32575D01*
X53268Y-32367D01*
X53210Y-32227D01*
X53117Y-32202D01*
X52820Y-32500D01*
X53117Y-32797D01*
X53210Y-32772D01*
X53279Y-32575D01*
X53279Y-33200D01*
X53275Y-33200D01*
X53275Y-33175D01*
X53237Y-33083D01*
X53166Y-33013D01*
X53074Y-32975D01*
X52987Y-32974D01*
X53022Y-32960D01*
X53047Y-32867D01*
X52750Y-32570D01*
X52452Y-32867D01*
X52477Y-32960D01*
X52518Y-32974D01*
X52425Y-32974D01*
X52333Y-33012D01*
X52263Y-33083D01*
X52225Y-33175D01*
X52224Y-33274D01*
X52224Y-33824D01*
X52262Y-33916D01*
X52333Y-33986D01*
X52425Y-34024D01*
X52524Y-34025D01*
X53074Y-34025D01*
X53166Y-33987D01*
X53236Y-33916D01*
X53274Y-33824D01*
X53274Y-33800D01*
X53349Y-33800D01*
X53349Y-33999D01*
X53387Y-34091D01*
X53458Y-34161D01*
X53550Y-34199D01*
X53649Y-34200D01*
X54449Y-34200D01*
X54541Y-34162D01*
X54611Y-34091D01*
X54649Y-33999D01*
X54650Y-33900D01*
X54650Y-34746D01*
X54614Y-34722D01*
X54500Y-34700D01*
X52377Y-34700D01*
X52424Y-34584D01*
X52425Y-34415D01*
X52360Y-34259D01*
X52241Y-34139D01*
X52084Y-34075D01*
X51999Y-34074D01*
X51521Y-33596D01*
X51423Y-33531D01*
X51354Y-33518D01*
X51354Y-33444D01*
X51316Y-33353D01*
X51246Y-33282D01*
X51167Y-33249D01*
X51245Y-33217D01*
X51316Y-33147D01*
X51354Y-33055D01*
X51354Y-32955D01*
X51354Y-32846D01*
X51452Y-32944D01*
X51645Y-33024D01*
X51853Y-33025D01*
X52047Y-32945D01*
X52194Y-32797D01*
X52247Y-32671D01*
X52289Y-32772D01*
X52382Y-32797D01*
X52679Y-32500D01*
X52673Y-32494D01*
X52744Y-32423D01*
X52750Y-32429D01*
X53047Y-32132D01*
X53022Y-32039D01*
X52825Y-31970D01*
X52697Y-31977D01*
X52712Y-31962D01*
X52712Y-31962D01*
X52777Y-31864D01*
X52799Y-31750D01*
X52800Y-31750D01*
X52800Y-31498D01*
X53068Y-31498D01*
X53131Y-31435D01*
X53131Y-30550D01*
X53123Y-30550D01*
X53123Y-30450D01*
X53131Y-30450D01*
X53131Y-29564D01*
X53068Y-29502D01*
X52873Y-29501D01*
X52873Y-28845D01*
X52835Y-28754D01*
X52815Y-28733D01*
X52815Y-28385D01*
X52500Y-28070D01*
X52429Y-28141D01*
X52429Y-28000D01*
X52114Y-27684D01*
X52018Y-27712D01*
X52001Y-27760D01*
X51981Y-27712D01*
X51885Y-27684D01*
X51570Y-28000D01*
X51885Y-28315D01*
X51981Y-28287D01*
X51998Y-28239D01*
X52018Y-28287D01*
X52114Y-28315D01*
X52429Y-28000D01*
X52429Y-28141D01*
X52184Y-28385D01*
X52212Y-28481D01*
X52418Y-28554D01*
X52636Y-28543D01*
X52787Y-28481D01*
X52815Y-28385D01*
X52815Y-28733D01*
X52765Y-28683D01*
X52673Y-28645D01*
X52573Y-28645D01*
X51944Y-28645D01*
X51853Y-28683D01*
X51815Y-28721D01*
X51815Y-28385D01*
X51500Y-28070D01*
X51184Y-28385D01*
X51212Y-28481D01*
X51418Y-28554D01*
X51636Y-28543D01*
X51787Y-28481D01*
X51815Y-28385D01*
X51815Y-28721D01*
X51782Y-28753D01*
X51749Y-28832D01*
X51717Y-28754D01*
X51647Y-28683D01*
X51555Y-28645D01*
X51455Y-28645D01*
X50849Y-28645D01*
X50841Y-28638D01*
X50749Y-28600D01*
X50650Y-28599D01*
X50050Y-28599D01*
X49958Y-28637D01*
X49888Y-28708D01*
X49850Y-28800D01*
X49849Y-28899D01*
X49849Y-29699D01*
X49887Y-29791D01*
X49958Y-29861D01*
X50050Y-29899D01*
X50074Y-29899D01*
X50067Y-29918D01*
X50066Y-30018D01*
X50066Y-30636D01*
X49649Y-30949D01*
X49649Y-30949D01*
X49650Y-30850D01*
X49650Y-30250D01*
X49650Y-29600D01*
X49650Y-28899D01*
X49649Y-28800D01*
X49611Y-28708D01*
X49541Y-28637D01*
X49449Y-28599D01*
X49212Y-28600D01*
X49150Y-28662D01*
X49150Y-29200D01*
X49587Y-29200D01*
X49650Y-29137D01*
X49650Y-28899D01*
X49650Y-29600D01*
X49650Y-29362D01*
X49587Y-29300D01*
X49150Y-29300D01*
X49150Y-29837D01*
X49212Y-29900D01*
X49449Y-29900D01*
X49541Y-29862D01*
X49611Y-29791D01*
X49649Y-29699D01*
X49650Y-29600D01*
X49650Y-30250D01*
X49612Y-30158D01*
X49541Y-30088D01*
X49449Y-30050D01*
X49350Y-30049D01*
X48874Y-30049D01*
X48862Y-30037D01*
X48764Y-29972D01*
X48650Y-29950D01*
X48623Y-29950D01*
X48623Y-29845D01*
X48610Y-29813D01*
X48658Y-29862D01*
X48750Y-29900D01*
X48987Y-29900D01*
X49050Y-29837D01*
X49050Y-29300D01*
X49050Y-29200D01*
X49050Y-28662D01*
X48987Y-28600D01*
X48750Y-28599D01*
X48658Y-28637D01*
X48588Y-28708D01*
X48550Y-28800D01*
X48549Y-28899D01*
X48550Y-29137D01*
X48612Y-29200D01*
X49050Y-29200D01*
X49050Y-29300D01*
X48612Y-29300D01*
X48550Y-29362D01*
X48549Y-29600D01*
X48550Y-29699D01*
X48563Y-29731D01*
X48515Y-29683D01*
X48423Y-29645D01*
X48323Y-29645D01*
X47950Y-29645D01*
X47950Y-29600D01*
X47950Y-28800D01*
X47912Y-28708D01*
X47841Y-28638D01*
X47749Y-28600D01*
X47650Y-28599D01*
X47050Y-28599D01*
X46958Y-28637D01*
X46888Y-28708D01*
X46850Y-28800D01*
X46849Y-28899D01*
X46849Y-29666D01*
X46828Y-29645D01*
X46650Y-29645D01*
X46650Y-29600D01*
X46650Y-28899D01*
X46649Y-28800D01*
X46611Y-28708D01*
X46541Y-28637D01*
X46449Y-28599D01*
X46212Y-28600D01*
X46150Y-28662D01*
X46150Y-29200D01*
X46587Y-29200D01*
X46650Y-29137D01*
X46650Y-28899D01*
X46650Y-29600D01*
X46650Y-29362D01*
X46587Y-29300D01*
X46150Y-29300D01*
X46150Y-29837D01*
X46212Y-29900D01*
X46376Y-29900D01*
X46376Y-29945D01*
X46376Y-30137D01*
X46439Y-30200D01*
X46891Y-30200D01*
X46891Y-30192D01*
X46991Y-30192D01*
X46991Y-30200D01*
X46998Y-30200D01*
X46998Y-30300D01*
X46991Y-30300D01*
X46991Y-30792D01*
X47053Y-30854D01*
X47200Y-30854D01*
X47200Y-30948D01*
X47139Y-31008D01*
X47079Y-31155D01*
X46962Y-31037D01*
X46891Y-30990D01*
X46891Y-30792D01*
X46891Y-30300D01*
X46439Y-30300D01*
X46376Y-30362D01*
X46376Y-30554D01*
X46376Y-30654D01*
X46414Y-30746D01*
X46485Y-30816D01*
X46576Y-30854D01*
X46828Y-30854D01*
X46891Y-30792D01*
X46891Y-30990D01*
X46864Y-30972D01*
X46750Y-30950D01*
X45471Y-30950D01*
X45466Y-30938D01*
X45311Y-30784D01*
X45230Y-30750D01*
X45311Y-30716D01*
X45465Y-30561D01*
X45549Y-30359D01*
X45550Y-30141D01*
X45466Y-29938D01*
X45327Y-29799D01*
X45349Y-29799D01*
X45441Y-29761D01*
X45512Y-29691D01*
X45549Y-29599D01*
X45549Y-29600D01*
X45550Y-29699D01*
X45588Y-29791D01*
X45658Y-29862D01*
X45750Y-29900D01*
X45987Y-29900D01*
X46050Y-29837D01*
X46050Y-29300D01*
X46050Y-29200D01*
X46050Y-28662D01*
X45987Y-28600D01*
X45750Y-28599D01*
X45658Y-28637D01*
X45588Y-28708D01*
X45550Y-28800D01*
X45549Y-28899D01*
X45549Y-28900D01*
X45512Y-28808D01*
X45441Y-28738D01*
X45349Y-28700D01*
X45250Y-28699D01*
X45112Y-28700D01*
X45050Y-28762D01*
X45050Y-29200D01*
X45487Y-29200D01*
X45550Y-29137D01*
X45612Y-29200D01*
X46050Y-29200D01*
X46050Y-29300D01*
X45612Y-29300D01*
X45550Y-29362D01*
X45487Y-29300D01*
X45050Y-29300D01*
X45050Y-29307D01*
X44950Y-29307D01*
X44950Y-29300D01*
X44950Y-29200D01*
X44950Y-28762D01*
X44887Y-28700D01*
X44749Y-28699D01*
X44650Y-28700D01*
X44558Y-28738D01*
X44487Y-28808D01*
X44449Y-28900D01*
X44450Y-29137D01*
X44512Y-29200D01*
X44950Y-29200D01*
X44950Y-29300D01*
X44512Y-29300D01*
X44450Y-29362D01*
X44449Y-29599D01*
X44487Y-29691D01*
X44558Y-29761D01*
X44650Y-29799D01*
X44672Y-29799D01*
X44534Y-29938D01*
X44450Y-30140D01*
X44449Y-30358D01*
X44533Y-30561D01*
X44688Y-30715D01*
X44769Y-30749D01*
X44688Y-30783D01*
X44534Y-30938D01*
X44529Y-30950D01*
X44250Y-30950D01*
X44135Y-30972D01*
X44037Y-31037D01*
X43787Y-31287D01*
X43722Y-31385D01*
X43700Y-31500D01*
X43700Y-32125D01*
X43500Y-32325D01*
X43499Y-32324D01*
X43500Y-32101D01*
X43500Y-32101D01*
X43500Y-30700D01*
X43500Y-29700D01*
X43462Y-29608D01*
X43391Y-29538D01*
X43299Y-29500D01*
X43200Y-29499D01*
X42200Y-29499D01*
X42108Y-29537D01*
X42038Y-29608D01*
X42000Y-29700D01*
X41999Y-29799D01*
X41999Y-30799D01*
X42037Y-30891D01*
X42108Y-30961D01*
X42200Y-30999D01*
X42299Y-31000D01*
X43299Y-31000D01*
X43391Y-30962D01*
X43461Y-30891D01*
X43499Y-30799D01*
X43500Y-30700D01*
X43500Y-32101D01*
X43386Y-31825D01*
X43175Y-31614D01*
X42899Y-31500D01*
X42601Y-31499D01*
X42325Y-31613D01*
X42114Y-31824D01*
X42000Y-32100D01*
X41999Y-32398D01*
X42113Y-32674D01*
X42324Y-32885D01*
X42600Y-32999D01*
X42898Y-33000D01*
X43107Y-32913D01*
X43139Y-32990D01*
X43258Y-33110D01*
X43415Y-33174D01*
X43584Y-33175D01*
X43740Y-33110D01*
X43860Y-32991D01*
X43924Y-32834D01*
X43925Y-32749D01*
X43950Y-32724D01*
X43950Y-34000D01*
X43972Y-34114D01*
X44037Y-34212D01*
X44537Y-34712D01*
X44537Y-34712D01*
X44635Y-34777D01*
X44750Y-34800D01*
X44930Y-34800D01*
X44684Y-34901D01*
X44402Y-35182D01*
X44250Y-35550D01*
X44250Y-35745D01*
X44248Y-35541D01*
X44103Y-35191D01*
X43961Y-35109D01*
X43890Y-35180D01*
X43890Y-35038D01*
X43808Y-34896D01*
X43439Y-34748D01*
X43041Y-34751D01*
X42691Y-34896D01*
X42609Y-35038D01*
X43250Y-35679D01*
X43890Y-35038D01*
X43890Y-35180D01*
X43320Y-35750D01*
X43961Y-36390D01*
X44103Y-36308D01*
X44249Y-35944D01*
X44249Y-35948D01*
X44401Y-36315D01*
X44682Y-36597D01*
X45050Y-36749D01*
X45448Y-36750D01*
X45815Y-36598D01*
X46097Y-36317D01*
X46249Y-35949D01*
X46249Y-35754D01*
X46251Y-35958D01*
X46396Y-36308D01*
X46538Y-36390D01*
X47179Y-35750D01*
X47173Y-35744D01*
X47244Y-35673D01*
X47250Y-35679D01*
X47255Y-35673D01*
X47326Y-35744D01*
X47320Y-35750D01*
X47961Y-36390D01*
X48103Y-36308D01*
X48249Y-35943D01*
X48249Y-36549D01*
X48287Y-36641D01*
X48358Y-36711D01*
X48450Y-36749D01*
X48549Y-36750D01*
X50049Y-36750D01*
X50141Y-36712D01*
X50211Y-36641D01*
X50249Y-36549D01*
X50250Y-36450D01*
X50250Y-35050D01*
X50980Y-35050D01*
X50825Y-35113D01*
X50614Y-35324D01*
X50500Y-35600D01*
X50499Y-35898D01*
X50613Y-36174D01*
X50824Y-36385D01*
X51100Y-36499D01*
X51398Y-36500D01*
X51674Y-36386D01*
X51885Y-36175D01*
X51999Y-35899D01*
X52000Y-35601D01*
X51886Y-35325D01*
X51675Y-35114D01*
X51519Y-35050D01*
X51625Y-35050D01*
X51787Y-35212D01*
X51787Y-35212D01*
X51885Y-35277D01*
X52000Y-35300D01*
X52697Y-35300D01*
X52603Y-35341D01*
X52496Y-35620D01*
X52504Y-35918D01*
X52603Y-36158D01*
X52719Y-36209D01*
X53179Y-35750D01*
X53173Y-35744D01*
X53244Y-35673D01*
X53250Y-35679D01*
X53255Y-35673D01*
X53326Y-35744D01*
X53320Y-35750D01*
X53780Y-36209D01*
X53896Y-36158D01*
X54003Y-35879D01*
X53995Y-35581D01*
X53896Y-35341D01*
X53802Y-35300D01*
X54375Y-35300D01*
X54499Y-35424D01*
X54499Y-36299D01*
X54537Y-36391D01*
X54608Y-36461D01*
X54700Y-36499D01*
X54799Y-36500D01*
X55799Y-36500D01*
X55891Y-36462D01*
X55961Y-36391D01*
X55999Y-36299D01*
X56000Y-36200D01*
X56000Y-37200D01*
X53709Y-37200D01*
X53709Y-36280D01*
X53250Y-35820D01*
X52790Y-36280D01*
X52841Y-36396D01*
X53120Y-36503D01*
X53418Y-36495D01*
X53658Y-36396D01*
X53709Y-36280D01*
X53709Y-37200D01*
X47890Y-37200D01*
X47890Y-36461D01*
X47250Y-35820D01*
X46609Y-36461D01*
X46691Y-36603D01*
X47060Y-36751D01*
X47458Y-36748D01*
X47808Y-36603D01*
X47890Y-36461D01*
X47890Y-37200D01*
X43890Y-37200D01*
X43890Y-36461D01*
X43250Y-35820D01*
X43179Y-35891D01*
X43179Y-35750D01*
X42538Y-35109D01*
X42396Y-35191D01*
X42248Y-35560D01*
X42251Y-35958D01*
X42396Y-36308D01*
X42538Y-36390D01*
X43179Y-35750D01*
X43179Y-35891D01*
X42609Y-36461D01*
X42691Y-36603D01*
X43060Y-36751D01*
X43458Y-36748D01*
X43808Y-36603D01*
X43890Y-36461D01*
X43890Y-37200D01*
X41300Y-37200D01*
X41300Y-27529D01*
X45016Y-27529D01*
X44988Y-27558D01*
X44950Y-27650D01*
X44949Y-27749D01*
X44949Y-28349D01*
X44987Y-28441D01*
X45058Y-28511D01*
X45150Y-28549D01*
X45249Y-28550D01*
X45849Y-28550D01*
X45941Y-28512D01*
X46011Y-28441D01*
X46049Y-28349D01*
X46049Y-28327D01*
X46188Y-28465D01*
X46390Y-28549D01*
X46608Y-28550D01*
X46811Y-28466D01*
X46965Y-28311D01*
X46999Y-28230D01*
X47033Y-28311D01*
X47188Y-28465D01*
X47390Y-28549D01*
X47608Y-28550D01*
X47811Y-28466D01*
X47965Y-28311D01*
X47999Y-28230D01*
X48033Y-28311D01*
X48188Y-28465D01*
X48390Y-28549D01*
X48608Y-28550D01*
X48811Y-28466D01*
X48965Y-28311D01*
X48999Y-28230D01*
X49033Y-28311D01*
X49188Y-28465D01*
X49390Y-28549D01*
X49608Y-28550D01*
X49811Y-28466D01*
X49965Y-28311D01*
X49999Y-28230D01*
X50033Y-28311D01*
X50188Y-28465D01*
X50390Y-28549D01*
X50608Y-28550D01*
X50811Y-28466D01*
X50965Y-28311D01*
X50997Y-28236D01*
X51018Y-28287D01*
X51114Y-28315D01*
X51429Y-28000D01*
X51114Y-27684D01*
X51018Y-27712D01*
X50999Y-27767D01*
X50966Y-27688D01*
X50811Y-27534D01*
X50801Y-27529D01*
X51209Y-27529D01*
X51184Y-27614D01*
X51500Y-27929D01*
X51815Y-27614D01*
X51790Y-27529D01*
X52209Y-27529D01*
X52184Y-27614D01*
X52500Y-27929D01*
X52815Y-27614D01*
X52790Y-27529D01*
X53209Y-27529D01*
X53184Y-27614D01*
X53500Y-27929D01*
X53815Y-27614D01*
X53790Y-27529D01*
X54209Y-27529D01*
X54184Y-27614D01*
X54500Y-27929D01*
X54815Y-27614D01*
X54790Y-27529D01*
X55209Y-27529D01*
X55184Y-27614D01*
X55500Y-27929D01*
X55815Y-27614D01*
X55790Y-27529D01*
X56016Y-27529D01*
X55988Y-27558D01*
X55950Y-27650D01*
X55949Y-27703D01*
X55885Y-27684D01*
X55570Y-28000D01*
X55885Y-28315D01*
X55949Y-28296D01*
X55950Y-28349D01*
X55988Y-28441D01*
X56058Y-28512D01*
X56150Y-28550D01*
X56387Y-28550D01*
X56450Y-28487D01*
X56450Y-28050D01*
X56442Y-28050D01*
X56442Y-27950D01*
X56450Y-27950D01*
X56450Y-27942D01*
X56550Y-27942D01*
X56550Y-27950D01*
X56557Y-27950D01*
X56557Y-28050D01*
X56550Y-28050D01*
X56550Y-28487D01*
X56612Y-28550D01*
X56720Y-28550D01*
X56720Y-37200D01*
X56720Y-37200D01*
G37*
G54D26*
X56720Y-37200D02*
X56250Y-37200D01*
X56250Y-30101D01*
X56136Y-29825D01*
X55925Y-29614D01*
X55815Y-29568D01*
X55815Y-28385D01*
X55500Y-28070D01*
X55429Y-28141D01*
X55429Y-28000D01*
X55114Y-27684D01*
X55018Y-27712D01*
X55001Y-27760D01*
X54981Y-27712D01*
X54885Y-27684D01*
X54570Y-28000D01*
X54885Y-28315D01*
X54981Y-28287D01*
X54998Y-28239D01*
X55018Y-28287D01*
X55114Y-28315D01*
X55429Y-28000D01*
X55429Y-28141D01*
X55184Y-28385D01*
X55212Y-28481D01*
X55418Y-28554D01*
X55636Y-28543D01*
X55787Y-28481D01*
X55815Y-28385D01*
X55815Y-29568D01*
X55649Y-29500D01*
X55351Y-29499D01*
X55075Y-29613D01*
X54864Y-29824D01*
X54815Y-29943D01*
X54815Y-28385D01*
X54500Y-28070D01*
X54429Y-28141D01*
X54429Y-28000D01*
X54114Y-27684D01*
X54018Y-27712D01*
X54001Y-27760D01*
X53981Y-27712D01*
X53885Y-27684D01*
X53570Y-28000D01*
X53885Y-28315D01*
X53981Y-28287D01*
X53998Y-28239D01*
X54018Y-28287D01*
X54114Y-28315D01*
X54429Y-28000D01*
X54429Y-28141D01*
X54184Y-28385D01*
X54212Y-28481D01*
X54418Y-28554D01*
X54636Y-28543D01*
X54787Y-28481D01*
X54815Y-28385D01*
X54815Y-29943D01*
X54750Y-30100D01*
X54749Y-30398D01*
X54863Y-30674D01*
X55074Y-30885D01*
X55350Y-30999D01*
X55648Y-31000D01*
X55924Y-30886D01*
X56135Y-30675D01*
X56249Y-30399D01*
X56250Y-30101D01*
X56250Y-37200D01*
X56250Y-37200D01*
X56250Y-32700D01*
X56250Y-31700D01*
X56212Y-31608D01*
X56141Y-31538D01*
X56049Y-31500D01*
X55950Y-31499D01*
X54950Y-31499D01*
X54858Y-31537D01*
X54788Y-31608D01*
X54750Y-31700D01*
X54749Y-31799D01*
X54749Y-32799D01*
X54787Y-32891D01*
X54858Y-32961D01*
X54950Y-32999D01*
X55049Y-33000D01*
X56049Y-33000D01*
X56141Y-32962D01*
X56211Y-32891D01*
X56249Y-32799D01*
X56250Y-32700D01*
X56250Y-37200D01*
X56000Y-37200D01*
X56000Y-36200D01*
X56000Y-35200D01*
X55962Y-35108D01*
X55891Y-35038D01*
X55799Y-35000D01*
X55700Y-34999D01*
X54924Y-34999D01*
X54712Y-34787D01*
X54650Y-34746D01*
X54650Y-33900D01*
X54650Y-33300D01*
X54650Y-32699D01*
X54650Y-32000D01*
X54612Y-31908D01*
X54541Y-31838D01*
X54449Y-31800D01*
X54350Y-31799D01*
X54112Y-31800D01*
X54050Y-31862D01*
X54050Y-32300D01*
X54587Y-32300D01*
X54650Y-32237D01*
X54650Y-32000D01*
X54650Y-32699D01*
X54650Y-32462D01*
X54587Y-32400D01*
X54050Y-32400D01*
X54050Y-32837D01*
X54112Y-32900D01*
X54350Y-32900D01*
X54449Y-32899D01*
X54541Y-32861D01*
X54612Y-32791D01*
X54650Y-32699D01*
X54650Y-33300D01*
X54612Y-33208D01*
X54541Y-33138D01*
X54449Y-33100D01*
X54350Y-33099D01*
X53950Y-33099D01*
X53950Y-32837D01*
X53950Y-32400D01*
X53950Y-32300D01*
X53950Y-31862D01*
X53933Y-31845D01*
X53933Y-31198D01*
X53933Y-29801D01*
X53932Y-29702D01*
X53894Y-29610D01*
X53824Y-29539D01*
X53815Y-29536D01*
X53815Y-28385D01*
X53500Y-28070D01*
X53429Y-28141D01*
X53429Y-28000D01*
X53114Y-27684D01*
X53018Y-27712D01*
X53001Y-27760D01*
X52981Y-27712D01*
X52885Y-27684D01*
X52570Y-28000D01*
X52885Y-28315D01*
X52981Y-28287D01*
X52998Y-28239D01*
X53018Y-28287D01*
X53114Y-28315D01*
X53429Y-28000D01*
X53429Y-28141D01*
X53184Y-28385D01*
X53212Y-28481D01*
X53418Y-28554D01*
X53636Y-28543D01*
X53787Y-28481D01*
X53815Y-28385D01*
X53815Y-29536D01*
X53732Y-29501D01*
X53293Y-29502D01*
X53231Y-29564D01*
X53231Y-30450D01*
X53870Y-30450D01*
X53933Y-30387D01*
X53933Y-29801D01*
X53933Y-31198D01*
X53933Y-30612D01*
X53870Y-30550D01*
X53231Y-30550D01*
X53231Y-31435D01*
X53293Y-31498D01*
X53732Y-31498D01*
X53824Y-31460D01*
X53894Y-31389D01*
X53932Y-31297D01*
X53933Y-31198D01*
X53933Y-31845D01*
X53887Y-31800D01*
X53649Y-31799D01*
X53550Y-31800D01*
X53458Y-31838D01*
X53387Y-31908D01*
X53349Y-32000D01*
X53350Y-32237D01*
X53412Y-32300D01*
X53950Y-32300D01*
X53950Y-32400D01*
X53412Y-32400D01*
X53350Y-32462D01*
X53349Y-32699D01*
X53387Y-32791D01*
X53458Y-32861D01*
X53550Y-32899D01*
X53649Y-32900D01*
X53887Y-32900D01*
X53950Y-32837D01*
X53950Y-33099D01*
X53550Y-33099D01*
X53458Y-33137D01*
X53396Y-33200D01*
X53279Y-33200D01*
X53279Y-32575D01*
X53268Y-32367D01*
X53210Y-32227D01*
X53117Y-32202D01*
X52820Y-32500D01*
X53117Y-32797D01*
X53210Y-32772D01*
X53279Y-32575D01*
X53279Y-33200D01*
X53275Y-33200D01*
X53275Y-33175D01*
X53237Y-33083D01*
X53166Y-33013D01*
X53074Y-32975D01*
X52987Y-32974D01*
X53022Y-32960D01*
X53047Y-32867D01*
X52750Y-32570D01*
X52452Y-32867D01*
X52477Y-32960D01*
X52518Y-32974D01*
X52425Y-32974D01*
X52333Y-33012D01*
X52263Y-33083D01*
X52225Y-33175D01*
X52224Y-33274D01*
X52224Y-33824D01*
X52262Y-33916D01*
X52333Y-33986D01*
X52425Y-34024D01*
X52524Y-34025D01*
X53074Y-34025D01*
X53166Y-33987D01*
X53236Y-33916D01*
X53274Y-33824D01*
X53274Y-33800D01*
X53349Y-33800D01*
X53349Y-33999D01*
X53387Y-34091D01*
X53458Y-34161D01*
X53550Y-34199D01*
X53649Y-34200D01*
X54449Y-34200D01*
X54541Y-34162D01*
X54611Y-34091D01*
X54649Y-33999D01*
X54650Y-33900D01*
X54650Y-34746D01*
X54614Y-34722D01*
X54500Y-34700D01*
X52377Y-34700D01*
X52424Y-34584D01*
X52425Y-34415D01*
X52360Y-34259D01*
X52241Y-34139D01*
X52084Y-34075D01*
X51999Y-34074D01*
X51521Y-33596D01*
X51423Y-33531D01*
X51354Y-33518D01*
X51354Y-33444D01*
X51316Y-33353D01*
X51246Y-33282D01*
X51167Y-33249D01*
X51245Y-33217D01*
X51316Y-33147D01*
X51354Y-33055D01*
X51354Y-32955D01*
X51354Y-32846D01*
X51452Y-32944D01*
X51645Y-33024D01*
X51853Y-33025D01*
X52047Y-32945D01*
X52194Y-32797D01*
X52247Y-32671D01*
X52289Y-32772D01*
X52382Y-32797D01*
X52679Y-32500D01*
X52673Y-32494D01*
X52744Y-32423D01*
X52750Y-32429D01*
X53047Y-32132D01*
X53022Y-32039D01*
X52825Y-31970D01*
X52697Y-31977D01*
X52712Y-31962D01*
X52712Y-31962D01*
X52777Y-31864D01*
X52799Y-31750D01*
X52800Y-31750D01*
X52800Y-31498D01*
X53068Y-31498D01*
X53131Y-31435D01*
X53131Y-30550D01*
X53123Y-30550D01*
X53123Y-30450D01*
X53131Y-30450D01*
X53131Y-29564D01*
X53068Y-29502D01*
X52873Y-29501D01*
X52873Y-28845D01*
X52835Y-28754D01*
X52815Y-28733D01*
X52815Y-28385D01*
X52500Y-28070D01*
X52429Y-28141D01*
X52429Y-28000D01*
X52114Y-27684D01*
X52018Y-27712D01*
X52001Y-27760D01*
X51981Y-27712D01*
X51885Y-27684D01*
X51570Y-28000D01*
X51885Y-28315D01*
X51981Y-28287D01*
X51998Y-28239D01*
X52018Y-28287D01*
X52114Y-28315D01*
X52429Y-28000D01*
X52429Y-28141D01*
X52184Y-28385D01*
X52212Y-28481D01*
X52418Y-28554D01*
X52636Y-28543D01*
X52787Y-28481D01*
X52815Y-28385D01*
X52815Y-28733D01*
X52765Y-28683D01*
X52673Y-28645D01*
X52573Y-28645D01*
X51944Y-28645D01*
X51853Y-28683D01*
X51815Y-28721D01*
X51815Y-28385D01*
X51500Y-28070D01*
X51184Y-28385D01*
X51212Y-28481D01*
X51418Y-28554D01*
X51636Y-28543D01*
X51787Y-28481D01*
X51815Y-28385D01*
X51815Y-28721D01*
X51782Y-28753D01*
X51749Y-28832D01*
X51717Y-28754D01*
X51647Y-28683D01*
X51555Y-28645D01*
X51455Y-28645D01*
X50849Y-28645D01*
X50841Y-28638D01*
X50749Y-28600D01*
X50650Y-28599D01*
X50050Y-28599D01*
X49958Y-28637D01*
X49888Y-28708D01*
X49850Y-28800D01*
X49849Y-28899D01*
X49849Y-29699D01*
X49887Y-29791D01*
X49958Y-29861D01*
X50050Y-29899D01*
X50074Y-29899D01*
X50067Y-29918D01*
X50066Y-30018D01*
X50066Y-30636D01*
X49649Y-30949D01*
X49649Y-30949D01*
X49650Y-30850D01*
X49650Y-30250D01*
X49650Y-29600D01*
X49650Y-28899D01*
X49649Y-28800D01*
X49611Y-28708D01*
X49541Y-28637D01*
X49449Y-28599D01*
X49212Y-28600D01*
X49150Y-28662D01*
X49150Y-29200D01*
X49587Y-29200D01*
X49650Y-29137D01*
X49650Y-28899D01*
X49650Y-29600D01*
X49650Y-29362D01*
X49587Y-29300D01*
X49150Y-29300D01*
X49150Y-29837D01*
X49212Y-29900D01*
X49449Y-29900D01*
X49541Y-29862D01*
X49611Y-29791D01*
X49649Y-29699D01*
X49650Y-29600D01*
X49650Y-30250D01*
X49612Y-30158D01*
X49541Y-30088D01*
X49449Y-30050D01*
X49350Y-30049D01*
X48874Y-30049D01*
X48862Y-30037D01*
X48764Y-29972D01*
X48650Y-29950D01*
X48623Y-29950D01*
X48623Y-29845D01*
X48610Y-29813D01*
X48658Y-29862D01*
X48750Y-29900D01*
X48987Y-29900D01*
X49050Y-29837D01*
X49050Y-29300D01*
X49050Y-29200D01*
X49050Y-28662D01*
X48987Y-28600D01*
X48750Y-28599D01*
X48658Y-28637D01*
X48588Y-28708D01*
X48550Y-28800D01*
X48549Y-28899D01*
X48550Y-29137D01*
X48612Y-29200D01*
X49050Y-29200D01*
X49050Y-29300D01*
X48612Y-29300D01*
X48550Y-29362D01*
X48549Y-29600D01*
X48550Y-29699D01*
X48563Y-29731D01*
X48515Y-29683D01*
X48423Y-29645D01*
X48323Y-29645D01*
X47950Y-29645D01*
X47950Y-29600D01*
X47950Y-28800D01*
X47912Y-28708D01*
X47841Y-28638D01*
X47749Y-28600D01*
X47650Y-28599D01*
X47050Y-28599D01*
X46958Y-28637D01*
X46888Y-28708D01*
X46850Y-28800D01*
X46849Y-28899D01*
X46849Y-29666D01*
X46828Y-29645D01*
X46650Y-29645D01*
X46650Y-29600D01*
X46650Y-28899D01*
X46649Y-28800D01*
X46611Y-28708D01*
X46541Y-28637D01*
X46449Y-28599D01*
X46212Y-28600D01*
X46150Y-28662D01*
X46150Y-29200D01*
X46587Y-29200D01*
X46650Y-29137D01*
X46650Y-28899D01*
X46650Y-29600D01*
X46650Y-29362D01*
X46587Y-29300D01*
X46150Y-29300D01*
X46150Y-29837D01*
X46212Y-29900D01*
X46376Y-29900D01*
X46376Y-29945D01*
X46376Y-30137D01*
X46439Y-30200D01*
X46891Y-30200D01*
X46891Y-30192D01*
X46991Y-30192D01*
X46991Y-30200D01*
X46998Y-30200D01*
X46998Y-30300D01*
X46991Y-30300D01*
X46991Y-30792D01*
X47053Y-30854D01*
X47200Y-30854D01*
X47200Y-30948D01*
X47139Y-31008D01*
X47079Y-31155D01*
X46962Y-31037D01*
X46891Y-30990D01*
X46891Y-30792D01*
X46891Y-30300D01*
X46439Y-30300D01*
X46376Y-30362D01*
X46376Y-30554D01*
X46376Y-30654D01*
X46414Y-30746D01*
X46485Y-30816D01*
X46576Y-30854D01*
X46828Y-30854D01*
X46891Y-30792D01*
X46891Y-30990D01*
X46864Y-30972D01*
X46750Y-30950D01*
X45471Y-30950D01*
X45466Y-30938D01*
X45311Y-30784D01*
X45230Y-30750D01*
X45311Y-30716D01*
X45465Y-30561D01*
X45549Y-30359D01*
X45550Y-30141D01*
X45466Y-29938D01*
X45327Y-29799D01*
X45349Y-29799D01*
X45441Y-29761D01*
X45512Y-29691D01*
X45549Y-29599D01*
X45549Y-29600D01*
X45550Y-29699D01*
X45588Y-29791D01*
X45658Y-29862D01*
X45750Y-29900D01*
X45987Y-29900D01*
X46050Y-29837D01*
X46050Y-29300D01*
X46050Y-29200D01*
X46050Y-28662D01*
X45987Y-28600D01*
X45750Y-28599D01*
X45658Y-28637D01*
X45588Y-28708D01*
X45550Y-28800D01*
X45549Y-28899D01*
X45549Y-28900D01*
X45512Y-28808D01*
X45441Y-28738D01*
X45349Y-28700D01*
X45250Y-28699D01*
X45112Y-28700D01*
X45050Y-28762D01*
X45050Y-29200D01*
X45487Y-29200D01*
X45550Y-29137D01*
X45612Y-29200D01*
X46050Y-29200D01*
X46050Y-29300D01*
X45612Y-29300D01*
X45550Y-29362D01*
X45487Y-29300D01*
X45050Y-29300D01*
X45050Y-29307D01*
X44950Y-29307D01*
X44950Y-29300D01*
X44950Y-29200D01*
X44950Y-28762D01*
X44887Y-28700D01*
X44749Y-28699D01*
X44650Y-28700D01*
X44558Y-28738D01*
X44487Y-28808D01*
X44449Y-28900D01*
X44450Y-29137D01*
X44512Y-29200D01*
X44950Y-29200D01*
X44950Y-29300D01*
X44512Y-29300D01*
X44450Y-29362D01*
X44449Y-29599D01*
X44487Y-29691D01*
X44558Y-29761D01*
X44650Y-29799D01*
X44672Y-29799D01*
X44534Y-29938D01*
X44450Y-30140D01*
X44449Y-30358D01*
X44533Y-30561D01*
X44688Y-30715D01*
X44769Y-30749D01*
X44688Y-30783D01*
X44534Y-30938D01*
X44529Y-30950D01*
X44250Y-30950D01*
X44135Y-30972D01*
X44037Y-31037D01*
X43787Y-31287D01*
X43722Y-31385D01*
X43700Y-31500D01*
X43700Y-32125D01*
X43500Y-32325D01*
X43499Y-32324D01*
X43500Y-32101D01*
X43500Y-32101D01*
X43500Y-30700D01*
X43500Y-29700D01*
X43462Y-29608D01*
X43391Y-29538D01*
X43299Y-29500D01*
X43200Y-29499D01*
X42200Y-29499D01*
X42108Y-29537D01*
X42038Y-29608D01*
X42000Y-29700D01*
X41999Y-29799D01*
X41999Y-30799D01*
X42037Y-30891D01*
X42108Y-30961D01*
X42200Y-30999D01*
X42299Y-31000D01*
X43299Y-31000D01*
X43391Y-30962D01*
X43461Y-30891D01*
X43499Y-30799D01*
X43500Y-30700D01*
X43500Y-32101D01*
X43386Y-31825D01*
X43175Y-31614D01*
X42899Y-31500D01*
X42601Y-31499D01*
X42325Y-31613D01*
X42114Y-31824D01*
X42000Y-32100D01*
X41999Y-32398D01*
X42113Y-32674D01*
X42324Y-32885D01*
X42600Y-32999D01*
X42898Y-33000D01*
X43107Y-32913D01*
X43139Y-32990D01*
X43258Y-33110D01*
X43415Y-33174D01*
X43584Y-33175D01*
X43740Y-33110D01*
X43860Y-32991D01*
X43924Y-32834D01*
X43925Y-32749D01*
X43950Y-32724D01*
X43950Y-34000D01*
X43972Y-34114D01*
X44037Y-34212D01*
X44537Y-34712D01*
X44537Y-34712D01*
X44635Y-34777D01*
X44750Y-34800D01*
X44930Y-34800D01*
X44684Y-34901D01*
X44402Y-35182D01*
X44250Y-35550D01*
X44250Y-35745D01*
X44248Y-35541D01*
X44103Y-35191D01*
X43961Y-35109D01*
X43890Y-35180D01*
X43890Y-35038D01*
X43808Y-34896D01*
X43439Y-34748D01*
X43041Y-34751D01*
X42691Y-34896D01*
X42609Y-35038D01*
X43250Y-35679D01*
X43890Y-35038D01*
X43890Y-35180D01*
X43320Y-35750D01*
X43961Y-36390D01*
X44103Y-36308D01*
X44249Y-35944D01*
X44249Y-35948D01*
X44401Y-36315D01*
X44682Y-36597D01*
X45050Y-36749D01*
X45448Y-36750D01*
X45815Y-36598D01*
X46097Y-36317D01*
X46249Y-35949D01*
X46249Y-35754D01*
X46251Y-35958D01*
X46396Y-36308D01*
X46538Y-36390D01*
X47179Y-35750D01*
X47173Y-35744D01*
X47244Y-35673D01*
X47250Y-35679D01*
X47255Y-35673D01*
X47326Y-35744D01*
X47320Y-35750D01*
X47961Y-36390D01*
X48103Y-36308D01*
X48249Y-35943D01*
X48249Y-36549D01*
X48287Y-36641D01*
X48358Y-36711D01*
X48450Y-36749D01*
X48549Y-36750D01*
X50049Y-36750D01*
X50141Y-36712D01*
X50211Y-36641D01*
X50249Y-36549D01*
X50250Y-36450D01*
X50250Y-35050D01*
X50980Y-35050D01*
X50825Y-35113D01*
X50614Y-35324D01*
X50500Y-35600D01*
X50499Y-35898D01*
X50613Y-36174D01*
X50824Y-36385D01*
X51100Y-36499D01*
X51398Y-36500D01*
X51674Y-36386D01*
X51885Y-36175D01*
X51999Y-35899D01*
X52000Y-35601D01*
X51886Y-35325D01*
X51675Y-35114D01*
X51519Y-35050D01*
X51625Y-35050D01*
X51787Y-35212D01*
X51787Y-35212D01*
X51885Y-35277D01*
X52000Y-35300D01*
X52697Y-35300D01*
X52603Y-35341D01*
X52496Y-35620D01*
X52504Y-35918D01*
X52603Y-36158D01*
X52719Y-36209D01*
X53179Y-35750D01*
X53173Y-35744D01*
X53244Y-35673D01*
X53250Y-35679D01*
X53255Y-35673D01*
X53326Y-35744D01*
X53320Y-35750D01*
X53780Y-36209D01*
X53896Y-36158D01*
X54003Y-35879D01*
X53995Y-35581D01*
X53896Y-35341D01*
X53802Y-35300D01*
X54375Y-35300D01*
X54499Y-35424D01*
X54499Y-36299D01*
X54537Y-36391D01*
X54608Y-36461D01*
X54700Y-36499D01*
X54799Y-36500D01*
X55799Y-36500D01*
X55891Y-36462D01*
X55961Y-36391D01*
X55999Y-36299D01*
X56000Y-36200D01*
X56000Y-37200D01*
X53709Y-37200D01*
X53709Y-36280D01*
X53250Y-35820D01*
X52790Y-36280D01*
X52841Y-36396D01*
X53120Y-36503D01*
X53418Y-36495D01*
X53658Y-36396D01*
X53709Y-36280D01*
X53709Y-37200D01*
X47890Y-37200D01*
X47890Y-36461D01*
X47250Y-35820D01*
X46609Y-36461D01*
X46691Y-36603D01*
X47060Y-36751D01*
X47458Y-36748D01*
X47808Y-36603D01*
X47890Y-36461D01*
X47890Y-37200D01*
X43890Y-37200D01*
X43890Y-36461D01*
X43250Y-35820D01*
X43179Y-35891D01*
X43179Y-35750D01*
X42538Y-35109D01*
X42396Y-35191D01*
X42248Y-35560D01*
X42251Y-35958D01*
X42396Y-36308D01*
X42538Y-36390D01*
X43179Y-35750D01*
X43179Y-35891D01*
X42609Y-36461D01*
X42691Y-36603D01*
X43060Y-36751D01*
X43458Y-36748D01*
X43808Y-36603D01*
X43890Y-36461D01*
X43890Y-37200D01*
X41300Y-37200D01*
X41300Y-27529D01*
X45016Y-27529D01*
X44988Y-27558D01*
X44950Y-27650D01*
X44949Y-27749D01*
X44949Y-28349D01*
X44987Y-28441D01*
X45058Y-28511D01*
X45150Y-28549D01*
X45249Y-28550D01*
X45849Y-28550D01*
X45941Y-28512D01*
X46011Y-28441D01*
X46049Y-28349D01*
X46049Y-28327D01*
X46188Y-28465D01*
X46390Y-28549D01*
X46608Y-28550D01*
X46811Y-28466D01*
X46965Y-28311D01*
X46999Y-28230D01*
X47033Y-28311D01*
X47188Y-28465D01*
X47390Y-28549D01*
X47608Y-28550D01*
X47811Y-28466D01*
X47965Y-28311D01*
X47999Y-28230D01*
X48033Y-28311D01*
X48188Y-28465D01*
X48390Y-28549D01*
X48608Y-28550D01*
X48811Y-28466D01*
X48965Y-28311D01*
X48999Y-28230D01*
X49033Y-28311D01*
X49188Y-28465D01*
X49390Y-28549D01*
X49608Y-28550D01*
X49811Y-28466D01*
X49965Y-28311D01*
X49999Y-28230D01*
X50033Y-28311D01*
X50188Y-28465D01*
X50390Y-28549D01*
X50608Y-28550D01*
X50811Y-28466D01*
X50965Y-28311D01*
X50997Y-28236D01*
X51018Y-28287D01*
X51114Y-28315D01*
X51429Y-28000D01*
X51114Y-27684D01*
X51018Y-27712D01*
X50999Y-27767D01*
X50966Y-27688D01*
X50811Y-27534D01*
X50801Y-27529D01*
X51209Y-27529D01*
X51184Y-27614D01*
X51500Y-27929D01*
X51815Y-27614D01*
X51790Y-27529D01*
X52209Y-27529D01*
X52184Y-27614D01*
X52500Y-27929D01*
X52815Y-27614D01*
X52790Y-27529D01*
X53209Y-27529D01*
X53184Y-27614D01*
X53500Y-27929D01*
X53815Y-27614D01*
X53790Y-27529D01*
X54209Y-27529D01*
X54184Y-27614D01*
X54500Y-27929D01*
X54815Y-27614D01*
X54790Y-27529D01*
X55209Y-27529D01*
X55184Y-27614D01*
X55500Y-27929D01*
X55815Y-27614D01*
X55790Y-27529D01*
X56016Y-27529D01*
X55988Y-27558D01*
X55950Y-27650D01*
X55949Y-27703D01*
X55885Y-27684D01*
X55570Y-28000D01*
X55885Y-28315D01*
X55949Y-28296D01*
X55950Y-28349D01*
X55988Y-28441D01*
X56058Y-28512D01*
X56150Y-28550D01*
X56387Y-28550D01*
X56450Y-28487D01*
X56450Y-28050D01*
X56442Y-28050D01*
X56442Y-27950D01*
X56450Y-27950D01*
X56450Y-27942D01*
X56550Y-27942D01*
X56550Y-27950D01*
X56557Y-27950D01*
X56557Y-28050D01*
X56550Y-28050D01*
X56550Y-28487D01*
X56612Y-28550D01*
X56720Y-28550D01*
X56720Y-37200D01*
M02*
